<svg id="svg" version="1.1" xmlns="http://www.w3.org/2000/svg" xmlns:xlink="http://www.w3.org/1999/xlink" width="400" height="400" viewBox="0, 0, 400,400"><g id="svgg"><path id="path0" d="M140.851 10.948 C 138.311 11.098,135.438 11.368,134.465 11.548 C 133.493 11.728,132.007 11.875,131.163 11.875 C 124.541 11.875,101.551 19.642,92.344 24.990 C 91.484 25.489,89.938 26.344,88.906 26.891 C 77.469 32.953,59.875 48.477,52.800 58.750 C 52.385 59.352,51.220 60.828,50.211 62.031 C 49.202 63.234,47.967 64.992,47.468 65.938 C 46.968 66.883,45.768 68.922,44.801 70.469 C 39.880 78.339,32.820 95.570,30.782 104.688 C 30.493 105.977,30.046 107.935,29.788 109.039 C 29.530 110.143,29.244 112.112,29.152 113.414 C 29.061 114.716,28.771 116.555,28.507 117.500 C 28.123 118.875,28.000 121.791,27.891 132.073 L 27.755 144.926 25.133 146.225 C 16.834 150.338,11.243 156.547,7.544 165.760 L 6.406 168.594 6.406 266.719 L 6.406 364.844 7.778 368.255 C 11.371 377.186,18.206 384.215,26.808 387.826 C 30.674 389.448,28.292 389.402,103.281 389.307 L 173.594 389.219 175.309 388.445 C 176.252 388.020,177.740 387.088,178.615 386.376 L 180.206 385.080 184.364 386.784 C 198.236 392.468,209.401 388.281,214.781 375.375 C 216.472 371.318,222.214 357.453,227.813 343.906 C 230.086 338.406,234.336 328.141,237.258 321.094 C 250.446 289.286,248.831 292.790,250.760 291.806 C 254.079 290.113,256.439 286.637,259.033 279.618 C 261.344 273.366,261.778 270.303,260.919 266.301 L 260.588 264.759 264.330 255.739 C 266.387 250.778,270.844 240.039,274.233 231.875 C 277.623 223.711,280.854 215.906,281.413 214.531 C 281.973 213.156,283.309 209.922,284.383 207.344 C 285.456 204.766,286.649 201.883,287.033 200.938 C 287.418 199.992,290.124 193.453,293.048 186.406 C 295.972 179.359,300.431 168.602,302.958 162.500 C 305.484 156.398,307.978 150.378,308.501 149.121 L 309.450 146.835 311.991 145.626 C 313.388 144.961,315.326 143.960,316.297 143.401 L 318.062 142.385 320.359 144.134 C 325.018 147.679,329.948 149.773,336.719 151.083 C 339.125 151.548,343.555 152.421,346.563 153.024 C 353.078 154.329,355.398 154.329,358.247 153.025 C 362.834 150.925,363.211 150.308,370.218 133.438 C 377.282 116.431,377.491 115.700,376.451 111.641 C 375.171 106.647,372.378 103.965,367.066 102.630 C 364.502 101.986,364.441 102.620,367.852 94.470 C 371.071 86.779,375.344 76.460,377.337 71.563 C 378.836 67.881,382.406 59.324,385.291 52.500 C 393.151 33.909,394.002 31.126,393.013 27.266 C 391.498 21.352,388.208 18.878,379.832 17.354 C 378.463 17.105,374.180 16.247,370.313 15.448 C 356.223 12.536,353.623 12.106,351.059 12.264 C 346.166 12.565,342.393 15.451,340.105 20.642 C 339.390 22.265,337.932 25.563,336.867 27.969 C 335.801 30.375,334.437 33.469,333.835 34.844 C 333.234 36.219,332.115 38.730,331.350 40.424 C 330.584 42.119,328.923 46.056,327.657 49.174 C 326.392 52.293,324.484 56.883,323.418 59.375 C 322.352 61.867,320.740 65.734,319.837 67.969 C 315.892 77.728,315.226 79.355,314.215 81.719 C 313.627 83.094,311.938 87.102,310.461 90.625 C 305.591 102.244,303.520 104.233,297.656 102.918 C 294.241 102.152,294.290 102.309,296.109 97.969 C 296.685 96.594,298.578 92.023,300.315 87.813 C 303.873 79.190,306.105 73.830,307.668 70.156 C 308.253 68.781,309.917 64.773,311.365 61.250 C 312.814 57.727,315.261 51.820,316.803 48.125 C 323.510 32.053,323.818 30.915,322.658 26.462 C 320.959 19.940,318.535 18.482,304.688 15.652 C 302.883 15.284,300.070 14.705,298.438 14.367 C 276.415 9.808,273.928 10.495,268.963 22.516 C 268.364 23.968,266.789 27.758,265.465 30.938 C 264.141 34.117,262.456 38.195,261.721 40.000 C 259.662 45.054,258.225 48.509,256.195 53.281 C 255.171 55.688,253.894 58.694,253.357 59.962 L 252.381 62.268 251.581 61.339 C 251.141 60.829,249.727 58.953,248.438 57.170 C 247.148 55.387,245.250 53.062,244.219 52.003 C 237.405 45.005,235.037 42.674,232.417 40.387 C 228.782 37.215,220.894 31.288,218.246 29.739 C 217.168 29.109,214.767 27.688,212.909 26.580 C 201.590 19.834,179.032 11.921,170.957 11.865 C 170.173 11.860,168.055 11.643,166.250 11.383 C 162.256 10.808,147.486 10.555,140.851 10.948 M164.375 23.275 C 173.400 24.283,186.018 27.313,191.719 29.842 C 192.234 30.071,193.852 30.774,195.313 31.405 C 201.960 34.275,204.084 35.394,210.625 39.468 C 224.251 47.955,236.891 60.592,245.962 74.797 C 248.107 78.156,248.131 78.430,246.577 81.879 C 234.683 108.295,236.770 130.432,252.239 141.935 C 255.280 144.196,255.288 143.977,251.858 152.031 C 251.199 153.578,248.743 159.484,246.400 165.156 C 241.481 177.064,237.814 185.926,230.297 204.063 C 227.341 211.195,223.528 220.406,221.824 224.531 C 220.120 228.656,218.316 233.016,217.814 234.219 C 217.312 235.422,216.113 238.305,215.148 240.625 C 213.347 244.958,212.689 245.967,211.136 246.775 C 207.147 248.850,201.046 260.552,200.956 266.303 C 200.909 269.291,200.730 269.262,189.219 264.377 C 184.831 262.515,183.138 262.119,179.895 262.196 C 176.323 262.281,176.250 262.273,176.249 261.797 C 176.249 261.582,176.801 260.070,177.476 258.438 C 180.641 250.777,180.659 244.959,177.538 237.546 C 166.632 211.633,130.627 214.084,123.114 241.250 C 122.441 243.683,122.624 253.526,123.381 255.625 C 125.141 260.507,126.731 263.171,129.960 266.654 C 131.197 267.989,132.332 269.402,132.481 269.795 C 132.770 270.554,132.432 274.665,132.027 275.320 C 131.894 275.535,131.681 276.570,131.554 277.621 C 130.757 284.180,129.392 292.517,128.426 296.719 C 128.267 297.406,127.984 299.375,127.797 301.094 C 127.609 302.813,127.097 305.977,126.658 308.125 C 126.219 310.273,125.750 312.945,125.616 314.063 C 125.274 316.911,124.749 319.901,123.880 323.955 C 123.469 325.873,123.041 328.635,122.929 330.093 C 122.648 333.751,122.155 333.569,132.715 333.694 C 142.499 333.810,142.007 333.649,141.908 336.704 C 141.674 343.932,144.851 347.711,154.531 351.718 C 167.668 357.156,166.862 356.637,166.322 359.310 C 165.197 364.879,165.751 369.267,168.136 373.688 C 169.477 376.175,169.650 377.015,168.881 377.310 C 167.977 377.657,34.648 377.511,33.125 377.162 C 28.028 375.993,21.572 369.868,19.151 363.906 L 18.136 361.406 18.136 266.719 L 18.136 172.031 19.216 169.410 C 22.309 161.901,29.679 156.009,37.099 155.113 C 39.812 154.786,39.628 156.004,39.761 137.500 C 39.864 123.156,39.945 120.897,40.405 119.531 C 40.694 118.672,40.932 117.183,40.934 116.222 C 40.936 115.261,41.219 113.375,41.563 112.031 C 41.906 110.687,42.188 109.294,42.189 108.934 C 42.193 107.356,46.605 93.943,48.351 90.203 C 52.536 81.235,56.602 73.901,59.520 70.057 C 60.214 69.143,61.488 67.443,62.352 66.279 C 65.602 61.900,73.960 52.771,76.247 51.100 C 76.723 50.753,78.188 49.535,79.502 48.393 C 94.506 35.360,116.194 25.884,136.694 23.406 C 144.741 22.433,156.346 22.378,164.375 23.275 M287.969 24.670 C 289.859 25.030,292.461 25.524,293.750 25.770 C 303.198 27.571,309.818 29.084,310.350 29.565 C 311.162 30.300,311.404 29.589,305.747 43.125 C 303.916 47.508,302.168 51.727,301.863 52.500 C 301.559 53.273,300.223 56.508,298.896 59.688 C 297.569 62.867,296.208 66.172,295.873 67.031 C 295.537 67.891,294.170 71.195,292.833 74.375 C 291.497 77.555,289.589 82.125,288.594 84.531 C 287.599 86.938,286.188 90.313,285.459 92.031 C 281.755 100.767,281.623 105.079,284.922 109.553 C 289.029 115.123,301.040 117.045,308.549 113.334 C 314.102 110.589,316.848 106.897,321.255 96.250 C 323.402 91.063,325.861 85.128,328.896 77.813 C 329.645 76.008,331.268 72.070,332.503 69.063 C 333.739 66.055,335.381 62.117,336.154 60.313 C 336.927 58.508,338.306 55.195,339.219 52.952 C 340.733 49.232,342.180 45.878,345.480 38.438 C 346.128 36.977,347.680 33.461,348.928 30.625 C 352.105 23.409,350.986 23.766,362.656 26.248 C 364.203 26.577,368.660 27.487,372.560 28.270 C 376.460 29.053,379.865 29.775,380.126 29.875 C 381.083 30.243,380.957 31.239,379.510 34.747 C 378.709 36.691,377.101 40.602,375.938 43.438 C 374.775 46.273,372.207 52.461,370.233 57.188 C 368.258 61.914,366.182 66.906,365.619 68.281 C 362.975 74.739,361.375 78.605,358.052 86.563 C 351.596 102.023,351.270 103.058,351.863 106.186 C 352.667 110.425,355.484 112.763,360.781 113.587 C 364.721 114.200,364.866 114.570,362.958 119.146 C 362.153 121.077,360.817 124.344,359.988 126.406 C 355.902 136.575,353.853 141.100,353.181 141.436 C 352.486 141.783,351.590 141.673,345.625 140.503 C 344.336 140.250,341.734 139.741,339.844 139.371 C 330.493 137.542,324.604 133.537,321.129 126.641 C 320.037 124.474,319.712 124.536,316.897 127.449 C 313.374 131.095,308.940 134.017,304.259 135.778 C 300.180 137.312,300.398 137.071,298.171 142.500 C 295.167 149.823,290.734 160.540,288.994 164.688 C 287.948 167.180,286.780 169.992,286.398 170.938 C 286.016 171.883,285.206 173.852,284.598 175.313 C 283.990 176.773,282.624 180.078,281.562 182.656 C 279.480 187.707,278.293 190.571,276.248 195.469 C 275.531 197.188,274.333 200.070,273.587 201.875 C 270.689 208.885,268.963 213.068,267.978 215.469 C 267.413 216.844,265.719 220.922,264.214 224.531 C 262.708 228.141,261.158 231.867,260.769 232.813 C 260.380 233.758,259.221 236.570,258.193 239.063 C 257.164 241.555,255.687 245.141,254.909 247.031 C 253.390 250.727,250.658 257.276,248.852 261.550 C 247.318 265.182,247.204 266.276,248.230 267.495 C 249.789 269.348,249.715 270.270,247.558 275.938 C 245.932 280.208,244.839 281.498,242.554 281.847 C 240.264 282.197,240.533 281.741,235.614 293.594 C 229.155 309.156,224.762 319.757,223.375 323.125 C 222.703 324.758,221.885 326.727,221.557 327.500 C 221.230 328.273,220.383 330.313,219.677 332.031 C 216.948 338.668,216.167 340.552,215.145 342.969 C 214.563 344.344,212.728 348.773,211.067 352.813 C 202.407 373.870,202.916 372.761,201.097 374.561 C 198.591 377.041,195.100 377.851,191.836 376.709 C 179.464 372.382,176.381 369.851,176.433 364.063 L 176.459 361.094 179.792 352.863 C 183.884 342.757,183.931 341.859,180.379 341.753 C 179.120 341.716,178.930 341.975,176.939 346.459 C 175.717 349.212,174.974 349.220,168.594 346.548 C 166.875 345.828,164.695 344.923,163.750 344.536 C 150.089 338.944,150.642 339.518,153.126 333.500 C 156.272 325.879,155.891 326.078,162.278 328.733 C 168.581 331.354,168.064 331.538,170.459 325.822 C 172.558 320.811,172.674 321.032,166.653 318.541 C 159.942 315.764,160.214 316.386,162.902 309.963 C 164.008 307.319,165.722 303.188,166.709 300.781 C 169.483 294.025,168.965 294.331,174.096 296.406 C 179.130 298.442,179.119 298.448,181.383 292.909 C 183.438 287.882,183.385 287.747,178.594 285.789 C 173.535 283.722,173.621 284.019,176.255 277.753 C 179.070 271.054,178.950 271.087,187.587 274.702 C 190.891 276.085,194.648 277.651,195.938 278.181 C 203.515 281.302,203.678 281.474,202.370 284.969 C 200.753 289.288,201.176 290.938,203.900 290.937 C 205.273 290.937,205.597 290.478,207.650 285.625 C 208.631 283.305,210.066 279.930,210.837 278.125 C 213.557 271.762,213.668 271.355,212.992 270.211 C 211.112 267.029,211.135 266.354,213.301 261.241 C 214.896 257.478,216.158 255.792,217.607 255.487 C 219.576 255.073,219.864 254.992,220.239 254.747 C 220.639 254.485,222.387 250.369,231.341 228.594 C 232.118 226.703,233.549 223.258,234.521 220.938 C 235.493 218.617,237.131 214.680,238.161 212.188 C 239.190 209.695,240.440 206.672,240.938 205.469 C 241.436 204.266,242.420 201.875,243.126 200.156 C 243.832 198.438,244.889 195.906,245.474 194.531 C 246.059 193.156,247.954 188.586,249.684 184.375 C 251.414 180.164,253.242 175.734,253.746 174.531 C 255.032 171.457,258.107 164.036,262.033 154.531 C 263.878 150.063,265.934 145.113,266.600 143.532 C 268.431 139.190,268.564 139.449,263.125 136.788 C 247.057 128.928,244.537 112.587,255.401 86.719 C 256.773 83.453,258.354 79.656,258.915 78.281 C 259.475 76.906,260.496 74.445,261.182 72.813 C 261.869 71.180,263.767 66.609,265.400 62.656 C 268.140 56.023,274.224 41.394,277.811 32.813 C 278.637 30.836,279.762 28.128,280.311 26.796 C 281.730 23.351,281.442 23.431,287.969 24.670 M142.969 69.582 C 134.197 70.522,119.435 76.572,112.613 82.022 C 111.434 82.964,109.766 84.284,108.906 84.956 C 107.326 86.190,103.106 90.516,100.747 93.318 C 94.321 100.953,88.390 114.327,87.320 123.594 C 87.200 124.625,86.913 126.102,86.680 126.875 C 85.942 129.329,86.067 153.800,86.821 154.483 C 87.776 155.347,214.970 155.272,215.752 154.407 C 216.241 153.867,216.285 152.754,216.246 141.829 C 216.205 129.999,216.083 128.201,214.981 123.199 C 214.820 122.466,214.688 121.582,214.688 121.235 C 214.688 119.347,210.627 107.573,208.927 104.531 C 198.553 85.971,184.800 75.558,163.879 70.424 C 160.535 69.603,147.617 69.083,142.969 69.582 M158.676 81.849 C 172.983 84.338,183.935 90.831,192.461 101.875 C 200.612 112.433,203.707 121.644,204.252 136.969 L 204.471 143.125 151.286 143.125 L 98.101 143.125 98.210 136.641 C 98.316 130.316,98.468 128.946,99.739 122.813 C 101.142 116.040,106.103 105.723,110.122 101.216 C 110.828 100.423,112.086 98.978,112.917 98.005 C 114.280 96.407,116.101 94.785,120.150 91.562 C 129.628 84.016,146.576 79.743,158.676 81.849 M154.019 232.031 C 165.126 234.405,170.704 246.149,165.274 255.730 C 162.331 260.924,162.196 265.493,164.861 269.715 C 165.862 271.300,165.857 271.337,164.217 275.317 C 162.585 279.276,161.875 281.791,161.875 283.609 C 161.875 284.686,161.669 285.115,160.624 286.213 C 158.997 287.924,158.917 288.089,153.912 300.166 C 149.426 310.991,148.750 312.975,148.750 315.320 C 148.750 316.524,148.592 316.908,147.779 317.676 C 147.245 318.181,146.388 319.332,145.874 320.234 L 144.940 321.875 141.082 321.875 C 136.604 321.875,136.732 321.971,137.342 319.070 C 137.601 317.840,137.814 316.105,137.817 315.214 C 137.819 314.323,138.112 312.258,138.468 310.625 C 139.383 306.424,139.602 305.215,140.020 302.031 C 140.223 300.484,140.724 297.889,141.132 296.264 C 141.541 294.639,141.875 292.869,141.875 292.331 C 141.875 291.792,142.089 289.958,142.351 288.254 C 142.612 286.550,142.961 284.133,143.125 282.883 C 143.290 281.633,143.697 279.453,144.031 278.039 C 146.054 269.463,144.981 264.688,139.767 259.066 C 138.522 257.723,136.940 255.630,136.252 254.416 L 135.000 252.207 135.000 247.971 L 135.000 243.736 136.279 241.165 C 138.647 236.406,142.685 233.182,147.969 231.832 C 150.266 231.245,150.355 231.248,154.019 232.031 " stroke="none" fill="#fbfbfb" fill-rule="evenodd"></path><path id="path1" d="M281.826 24.054 C 281.542 24.229,280.860 25.463,280.311 26.796 C 279.762 28.128,278.637 30.836,277.811 32.813 C 274.224 41.394,268.140 56.023,265.400 62.656 C 263.767 66.609,261.869 71.180,261.182 72.813 C 260.496 74.445,259.475 76.906,258.915 78.281 C 258.354 79.656,256.773 83.453,255.401 86.719 C 244.537 112.587,247.057 128.928,263.125 136.788 C 268.564 139.449,268.431 139.190,266.600 143.532 C 265.934 145.113,263.878 150.063,262.033 154.531 C 258.107 164.036,255.032 171.457,253.746 174.531 C 253.242 175.734,251.414 180.164,249.684 184.375 C 247.954 188.586,246.059 193.156,245.474 194.531 C 244.889 195.906,243.832 198.438,243.126 200.156 C 242.420 201.875,241.436 204.266,240.938 205.469 C 240.440 206.672,239.190 209.695,238.161 212.188 C 237.131 214.680,235.493 218.617,234.521 220.938 C 233.549 223.258,232.118 226.703,231.341 228.594 C 222.387 250.369,220.639 254.485,220.239 254.747 C 219.864 254.992,219.576 255.073,217.607 255.487 C 216.158 255.792,214.896 257.478,213.301 261.241 C 211.135 266.354,211.112 267.029,212.992 270.211 C 213.668 271.355,213.557 271.762,210.837 278.125 C 210.066 279.930,208.631 283.305,207.650 285.625 C 205.597 290.478,205.273 290.937,203.900 290.937 C 201.176 290.938,200.753 289.288,202.370 284.969 C 203.678 281.474,203.515 281.302,195.938 278.181 C 194.648 277.651,190.891 276.085,187.587 274.702 C 178.950 271.087,179.070 271.054,176.255 277.753 C 173.621 284.019,173.535 283.722,178.594 285.789 C 183.385 287.747,183.438 287.882,181.383 292.909 C 179.119 298.448,179.130 298.442,174.096 296.406 C 168.965 294.331,169.483 294.025,166.709 300.781 C 165.722 303.188,164.008 307.319,162.902 309.963 C 160.214 316.386,159.942 315.764,166.653 318.541 C 172.674 321.032,172.558 320.811,170.459 325.822 C 168.064 331.538,168.581 331.354,162.278 328.733 C 155.891 326.078,156.272 325.879,153.126 333.500 C 150.642 339.518,150.089 338.944,163.750 344.536 C 164.695 344.923,166.875 345.828,168.594 346.548 C 174.974 349.220,175.717 349.212,176.939 346.459 C 178.930 341.975,179.120 341.716,180.379 341.753 C 183.931 341.859,183.884 342.757,179.792 352.863 L 176.459 361.094 176.433 364.063 C 176.381 369.851,179.464 372.382,191.836 376.709 C 195.100 377.851,198.591 377.041,201.097 374.561 C 202.916 372.761,202.407 373.870,211.067 352.813 C 212.728 348.773,214.563 344.344,215.145 342.969 C 216.167 340.552,216.948 338.668,219.677 332.031 C 220.383 330.313,221.230 328.273,221.557 327.500 C 221.885 326.727,222.703 324.758,223.375 323.125 C 224.047 321.492,226.084 316.570,227.901 312.188 C 241.811 278.633,240.076 282.226,242.554 281.847 C 244.839 281.498,245.932 280.208,247.558 275.938 C 249.715 270.270,249.789 269.348,248.230 267.495 C 247.204 266.276,247.318 265.182,248.852 261.550 C 250.658 257.276,253.390 250.727,254.909 247.031 C 255.687 245.141,257.164 241.555,258.193 239.063 C 259.221 236.570,260.380 233.758,260.769 232.813 C 261.158 231.867,262.708 228.141,264.214 224.531 C 265.719 220.922,267.413 216.844,267.978 215.469 C 268.963 213.068,270.689 208.885,273.587 201.875 C 274.333 200.070,275.531 197.188,276.248 195.469 C 278.293 190.571,279.480 187.707,281.562 182.656 C 282.624 180.078,283.990 176.773,284.598 175.313 C 285.206 173.852,286.016 171.883,286.398 170.938 C 286.780 169.992,287.948 167.180,288.994 164.688 C 290.734 160.540,295.167 149.823,298.171 142.500 C 300.398 137.071,300.180 137.312,304.259 135.778 C 308.940 134.017,313.374 131.095,316.897 127.449 C 319.712 124.536,320.037 124.474,321.129 126.641 C 324.604 133.537,330.493 137.542,339.844 139.371 C 341.734 139.741,344.336 140.250,345.625 140.503 C 351.590 141.673,352.486 141.783,353.181 141.436 C 353.853 141.100,355.902 136.575,359.988 126.406 C 360.817 124.344,362.153 121.077,362.958 119.146 C 364.866 114.570,364.721 114.200,360.781 113.587 C 355.484 112.763,352.667 110.425,351.863 106.186 C 351.270 103.058,351.596 102.023,358.052 86.563 C 361.375 78.605,362.975 74.739,365.619 68.281 C 366.182 66.906,368.258 61.914,370.233 57.188 C 372.207 52.461,374.775 46.273,375.938 43.438 C 377.101 40.602,378.709 36.691,379.510 34.747 C 380.957 31.239,381.083 30.243,380.126 29.875 C 379.865 29.775,376.460 29.053,372.560 28.270 C 368.660 27.487,364.203 26.577,362.656 26.248 C 350.986 23.766,352.105 23.409,348.928 30.625 C 347.680 33.461,346.128 36.977,345.480 38.438 C 342.180 45.878,340.733 49.232,339.219 52.952 C 338.306 55.195,336.927 58.508,336.154 60.313 C 335.381 62.117,333.739 66.055,332.503 69.063 C 331.268 72.070,329.645 76.008,328.896 77.813 C 325.861 85.128,323.402 91.063,321.255 96.250 C 316.848 106.897,314.102 110.589,308.549 113.334 C 301.040 117.045,289.029 115.123,284.922 109.553 C 281.623 105.079,281.755 100.767,285.459 92.031 C 286.188 90.313,287.599 86.938,288.594 84.531 C 289.589 82.125,291.497 77.555,292.833 74.375 C 294.170 71.195,295.537 67.891,295.873 67.031 C 296.208 66.172,297.569 62.867,298.896 59.688 C 300.223 56.508,301.559 53.273,301.863 52.500 C 302.168 51.727,303.916 47.508,305.747 43.125 C 311.404 29.589,311.162 30.300,310.350 29.565 C 309.818 29.084,303.198 27.571,293.750 25.770 C 282.436 23.614,282.520 23.626,281.826 24.054 " stroke="none" fill="#045c04" fill-rule="evenodd"></path><path id="path2" d="M143.881 22.792 C 122.866 24.024,104.447 30.498,86.852 42.838 C 84.124 44.752,80.816 47.251,79.502 48.393 C 78.188 49.535,76.723 50.753,76.247 51.100 C 73.960 52.771,65.602 61.900,62.352 66.279 C 61.488 67.443,60.214 69.143,59.520 70.057 C 56.602 73.901,52.536 81.235,48.351 90.203 C 46.605 93.943,42.193 107.356,42.189 108.934 C 42.188 109.294,41.906 110.687,41.563 112.031 C 41.219 113.375,40.936 115.261,40.934 116.222 C 40.932 117.183,40.694 118.672,40.405 119.531 C 39.945 120.897,39.864 123.156,39.761 137.500 C 39.628 156.004,39.812 154.786,37.099 155.113 C 29.679 156.009,22.309 161.901,19.216 169.410 L 18.136 172.031 18.136 266.719 L 18.136 361.406 19.151 363.906 C 21.572 369.868,28.028 375.993,33.125 377.162 C 34.648 377.511,167.977 377.657,168.881 377.310 C 169.650 377.015,169.477 376.175,168.136 373.688 C 165.751 369.267,165.197 364.879,166.322 359.310 C 166.862 356.637,167.668 357.156,154.531 351.718 C 144.851 347.711,141.674 343.932,141.908 336.704 C 142.007 333.649,142.499 333.810,132.715 333.694 C 122.155 333.569,122.648 333.751,122.929 330.093 C 123.041 328.635,123.469 325.873,123.880 323.955 C 124.749 319.901,125.274 316.911,125.616 314.063 C 125.750 312.945,126.219 310.273,126.658 308.125 C 127.097 305.977,127.609 302.813,127.797 301.094 C 127.984 299.375,128.267 297.406,128.426 296.719 C 129.392 292.517,130.757 284.180,131.554 277.621 C 131.681 276.570,131.894 275.535,132.027 275.320 C 132.432 274.665,132.770 270.554,132.481 269.795 C 132.332 269.402,131.197 267.989,129.960 266.654 C 126.731 263.171,125.141 260.507,123.381 255.625 C 122.624 253.526,122.441 243.683,123.114 241.250 C 130.627 214.084,166.632 211.633,177.538 237.546 C 179.436 242.053,179.683 243.246,179.685 247.910 C 179.688 252.669,179.511 253.513,177.476 258.438 C 176.801 260.070,176.249 261.582,176.249 261.797 C 176.250 262.273,176.323 262.281,179.895 262.196 C 183.138 262.119,184.831 262.515,189.219 264.377 C 200.730 269.262,200.909 269.291,200.956 266.303 C 201.046 260.552,207.147 248.850,211.136 246.775 C 212.689 245.967,213.347 244.958,215.148 240.625 C 216.113 238.305,217.312 235.422,217.814 234.219 C 218.316 233.016,220.120 228.656,221.824 224.531 C 223.528 220.406,227.341 211.195,230.297 204.063 C 237.814 185.926,241.481 177.064,246.400 165.156 C 248.743 159.484,251.199 153.578,251.858 152.031 C 255.288 143.977,255.280 144.196,252.239 141.935 C 236.770 130.432,234.683 108.295,246.577 81.879 C 248.131 78.430,248.107 78.156,245.962 74.797 C 236.891 60.592,224.251 47.955,210.625 39.468 C 204.084 35.394,201.960 34.275,195.313 31.405 C 193.852 30.774,192.234 30.071,191.719 29.842 C 180.431 24.835,160.110 21.840,143.881 22.792 M163.879 70.424 C 184.800 75.558,198.553 85.971,208.927 104.531 C 210.627 107.573,214.688 119.347,214.688 121.235 C 214.688 121.582,214.820 122.466,214.981 123.199 C 216.083 128.201,216.205 129.999,216.246 141.829 C 216.285 152.754,216.241 153.867,215.752 154.407 C 214.970 155.272,87.776 155.347,86.821 154.483 C 86.067 153.800,85.942 129.329,86.680 126.875 C 86.913 126.102,87.200 124.625,87.320 123.594 C 88.390 114.327,94.321 100.953,100.747 93.318 C 103.106 90.516,107.326 86.190,108.906 84.956 C 109.766 84.284,111.434 82.964,112.613 82.022 C 118.596 77.243,127.801 73.107,137.969 70.629 C 144.501 69.038,157.801 68.932,163.879 70.424 " stroke="none" fill="#fc3434" fill-rule="evenodd"></path></g></svg>