<svg xmlns="http://www.w3.org/2000/svg" width="1280" height="1280" viewBox="0 0 1280 1280" version="1.1"><path d="M 453 43.056 C 444.475 43.554, 435.340 44.419, 432.701 44.980 C 430.061 45.541, 425.371 46, 422.278 46 C 414.074 46, 358.597 60.132, 350.195 64.362 C 348.713 65.109, 346.275 66.013, 344.778 66.372 C 342.164 66.998, 328.119 73.237, 308 82.709 C 302.775 85.169, 297.150 88.202, 295.500 89.450 C 293.850 90.698, 289.613 93.177, 286.085 94.957 C 280.375 97.839, 267.884 106.279, 247.928 120.738 C 235.786 129.535, 224.629 139.395, 207.461 156.500 C 191.012 172.889, 187.356 177.075, 176.500 191.949 C 173.750 195.717, 169.311 201.316, 166.635 204.392 C 163.959 207.468, 160.584 212.189, 159.135 214.882 C 157.686 217.576, 153.282 225.117, 149.350 231.640 C 145.417 238.163, 139.205 249.800, 135.545 257.500 C 131.885 265.200, 128.006 273.179, 126.926 275.231 C 118.783 290.700, 102.525 347.091, 100.983 365.215 C 100.548 370.322, 99.627 376.075, 98.936 378 C 98.024 380.539, 97.561 393.787, 97.251 426.250 C 96.889 464.220, 96.608 471, 95.392 471 C 78.209 471, 44.562 502.848, 32.925 530.126 L 28.500 540.500 28.500 853.500 L 28.500 1166.500 32.550 1176 C 43.488 1201.657, 60.788 1219.712, 86.266 1232.061 C 99.260 1238.359, 87.417 1238.081, 330.500 1237.778 L 553.500 1237.500 559.182 1234.710 C 564.428 1232.133, 569.415 1227.654, 571.819 1223.359 C 572.722 1221.745, 573.941 1222.073, 586.313 1227.258 C 614.216 1238.951, 625.459 1240.409, 642.500 1234.546 C 663.015 1227.487, 671.899 1217.884, 682.914 1190.860 C 686.133 1182.962, 691.120 1170.875, 693.995 1164 C 696.870 1157.125, 700.238 1149.025, 701.480 1146 C 702.721 1142.975, 705.880 1135.325, 708.500 1129 C 711.120 1122.675, 714.279 1115.025, 715.520 1112 C 721.318 1097.872, 739.921 1052.993, 745.986 1038.500 C 747.597 1034.650, 751.882 1024.300, 755.508 1015.500 C 759.134 1006.700, 763.398 996.350, 764.985 992.500 C 766.571 988.650, 769.948 980.550, 772.488 974.500 C 775.029 968.450, 778.410 960.350, 780.001 956.500 C 791.508 928.668, 790.339 930.756, 796.099 927.775 C 806.311 922.490, 814.188 912.564, 818.936 899 C 820.572 894.325, 823.271 886.675, 824.934 882 C 828.407 872.235, 829.076 859.893, 826.581 851.603 C 825.297 847.338, 825.334 846.488, 826.965 842.694 C 829.022 837.907, 834.056 825.851, 839.780 812 C 841.940 806.775, 846.894 794.850, 850.790 785.500 C 854.686 776.150, 862.234 757.925, 867.562 745 C 872.891 732.075, 879.012 717.225, 881.166 712 C 883.320 706.775, 886.614 698.900, 888.486 694.500 C 890.357 690.100, 893.737 682, 895.996 676.500 C 898.255 671, 901.501 663.125, 903.210 659 C 904.919 654.875, 907.525 648.575, 909 645 C 912.703 636.025, 916.929 625.860, 923.551 610 C 926.650 602.575, 931.222 591.550, 933.710 585.500 C 936.198 579.450, 940.926 567.975, 944.216 560 C 947.507 552.025, 951.220 543.025, 952.468 540 C 953.716 536.975, 956.880 529.325, 959.500 523 C 966.689 505.643, 968.173 502.051, 976.443 482 C 980.640 471.825, 984.498 463.353, 985.017 463.173 C 988.934 461.817, 1005.482 453.139, 1011.177 449.454 L 1018.165 444.934 1026.833 451.996 C 1038.719 461.681, 1063.814 474, 1071.658 474 C 1072.660 474, 1077.984 474.930, 1083.490 476.067 C 1088.995 477.204, 1096.650 478.753, 1100.500 479.509 C 1104.350 480.265, 1111.325 481.698, 1116 482.692 C 1133.762 486.470, 1145.150 484.110, 1153.442 474.933 C 1157.463 470.481, 1158.501 468.422, 1166.503 449 C 1169.562 441.575, 1172.542 434.652, 1173.125 433.615 C 1174.569 431.049, 1181.209 414.963, 1186.590 401 C 1189.027 394.675, 1191.878 387.925, 1192.926 386 C 1205.696 362.526, 1195.527 341.768, 1168.131 335.389 C 1161.734 333.900, 1156.347 332.562, 1156.160 332.417 C 1155.972 332.272, 1156.958 329.531, 1158.349 326.326 C 1159.740 323.122, 1164.307 312.175, 1168.498 302 C 1172.689 291.825, 1177.825 279.450, 1179.911 274.500 C 1181.997 269.550, 1185.191 261.900, 1187.010 257.500 C 1188.828 253.100, 1191.864 245.900, 1193.756 241.500 C 1195.648 237.100, 1198.109 231.025, 1199.224 228 C 1201.073 222.985, 1203.582 216.920, 1213.497 193.500 C 1215.360 189.100, 1219.410 179.425, 1222.497 172 C 1225.584 164.575, 1229.290 155.800, 1230.734 152.500 C 1232.177 149.200, 1235.023 142.225, 1237.057 137 C 1239.091 131.775, 1242.884 122.325, 1245.486 116 C 1252.714 98.429, 1252.502 88.058, 1244.707 77.838 C 1238.574 69.797, 1232.297 67.260, 1205.500 61.991 C 1194.944 59.915, 1186.647 58.247, 1166 54.051 C 1132.802 47.304, 1128.589 46.652, 1122.726 47.346 C 1111.973 48.620, 1101.097 56.801, 1096.833 66.824 C 1095.738 69.396, 1093.997 73.300, 1092.963 75.500 C 1091.929 77.700, 1088.861 84.675, 1086.145 91 C 1083.429 97.325, 1079.093 107.225, 1076.510 113 C 1063.680 141.675, 1059.993 150.183, 1057.008 158 C 1054.154 165.474, 1043.911 189.903, 1036.253 207.500 C 1034.817 210.800, 1031.973 217.775, 1029.934 223 C 1027.894 228.225, 1024.124 237.450, 1021.555 243.500 C 1018.986 249.550, 1015.820 257.200, 1014.518 260.500 C 1013.216 263.800, 1009.589 272.575, 1006.459 280 C 1003.329 287.425, 999.069 297.620, 996.993 302.656 C 984.061 334.018, 971.696 342.767, 948.500 336.970 C 933.342 333.181, 931.874 328.818, 939.762 311 C 941.101 307.975, 944.140 300.775, 946.516 295 C 948.892 289.225, 953.174 278.875, 956.033 272 C 958.892 265.125, 962.710 255.900, 964.518 251.500 C 966.326 247.100, 970.061 238.100, 972.818 231.500 C 982.132 209.201, 995.842 176.230, 1001.405 162.750 C 1003.277 158.213, 1006.692 150, 1008.994 144.500 C 1026.520 102.623, 1027.953 97.231, 1024.613 85.741 C 1019.975 69.785, 1013.047 66.102, 972.500 58.039 C 966.450 56.836, 957.675 55.023, 953 54.010 C 948.325 52.998, 939.100 51.212, 932.500 50.041 C 925.900 48.871, 917.425 47.200, 913.666 46.329 C 893.665 41.689, 879.750 48.639, 871.653 67.310 C 862.648 88.079, 860.417 93.340, 855.464 105.500 C 852.552 112.650, 847.939 123.900, 845.214 130.500 C 842.489 137.100, 838.225 147.450, 835.739 153.500 C 833.252 159.550, 829.547 168.325, 827.505 173 C 822.160 185.234, 816.323 199.242, 812.594 208.788 C 809.658 216.302, 809.258 216.862, 808.313 214.787 C 807.739 213.528, 805.043 209.798, 802.322 206.499 C 799.601 203.199, 794.809 196.900, 791.672 192.500 C 783.892 181.586, 779.360 175.982, 773.723 170.308 C 771.096 167.664, 763.837 160.325, 757.592 154 C 743.294 139.518, 729.631 127.567, 716.636 118.174 C 711.061 114.144, 705.592 110.002, 704.483 108.968 C 703.373 107.934, 699.473 105.381, 695.815 103.294 C 692.158 101.207, 686.316 97.746, 682.833 95.602 C 657.514 80.016, 620.592 63.751, 597.500 58.009 C 592.550 56.778, 587.744 55.374, 586.820 54.888 C 583.707 53.251, 549.675 46, 545.066 45.992 C 542.555 45.987, 535.550 45.294, 529.500 44.452 C 515.965 42.568, 474.375 41.809, 453 43.056 M 458.500 73.024 C 450.250 73.505, 440.800 74.386, 437.500 74.982 C 434.200 75.578, 428.877 76.152, 425.671 76.256 C 422.465 76.361, 419.626 76.796, 419.362 77.223 C 419.098 77.651, 417.135 78, 415 78 C 412.865 78, 410.840 78.450, 410.500 79 C 410.160 79.550, 408.615 80, 407.067 80 C 405.518 80, 402.338 80.675, 400 81.500 C 397.662 82.325, 394.680 83, 393.374 83 C 392.068 83, 391 83.347, 391 83.772 C 391 84.197, 387.962 85.120, 384.250 85.824 C 380.538 86.527, 377.072 87.530, 376.550 88.052 C 376.027 88.573, 374.367 89, 372.859 89 C 371.351 89, 369.840 89.450, 369.500 90 C 369.160 90.550, 367.784 91, 366.441 91 C 365.098 91, 364 91.378, 364 91.840 C 364 92.302, 361.479 93.285, 358.398 94.024 C 355.317 94.764, 352.569 95.961, 352.291 96.684 C 352.013 97.408, 350.703 98, 349.379 98 C 346.929 98, 343.667 99.499, 341.217 101.750 C 340.469 102.438, 339.053 103, 338.069 103 C 337.086 103, 333.631 104.344, 330.391 105.987 C 327.151 107.630, 323.938 108.980, 323.250 108.987 C 322.563 108.994, 321.996 109.338, 321.992 109.750 C 321.984 110.515, 317.252 113, 315.803 113 C 315.364 113, 312.866 114.501, 310.252 116.336 C 307.639 118.170, 304.038 120.250, 302.250 120.957 C 300.462 121.664, 299 122.638, 299 123.121 C 299 123.605, 298.086 124, 296.969 124 C 295.851 124, 294.678 124.675, 294.362 125.500 C 294.045 126.325, 293.159 127, 292.393 127 C 291.627 127, 291 127.379, 291 127.843 C 291 128.306, 289.001 129.714, 286.558 130.970 C 284.115 132.227, 281.879 133.872, 281.590 134.627 C 281.300 135.382, 280.546 136, 279.914 136 C 279.282 136, 275.555 138.393, 271.632 141.317 C 267.710 144.241, 263.488 147.321, 262.251 148.160 C 260.327 149.466, 249.509 158.859, 245.448 162.750 C 244.730 163.438, 243.841 164, 243.471 164 C 242.510 164, 218 188.763, 218 189.734 C 218 190.178, 216.870 191.658, 215.490 193.021 C 210.458 197.990, 203 206.546, 203 207.351 C 203 208.293, 194.534 219.222, 192.113 221.405 C 190.951 222.453, 190 223.911, 190 224.647 C 190 225.382, 189.100 226.545, 188 227.232 C 186.900 227.919, 186 229.003, 186 229.640 C 186 230.277, 184.425 233.139, 182.500 236 C 180.575 238.861, 179 241.831, 179 242.600 C 179 243.370, 178.622 244, 178.159 244 C 177.696 244, 176.100 246.137, 174.612 248.750 C 173.124 251.363, 171.060 254.850, 170.026 256.500 C 168.992 258.150, 168.103 260.175, 168.051 261 C 167.998 261.825, 167.076 263.625, 166 265 C 164.924 266.375, 164.034 268.106, 164.022 268.846 C 164.010 269.586, 163.064 271.506, 161.919 273.113 C 160.775 274.721, 159.048 278.279, 158.083 281.021 C 157.117 283.763, 156.029 286.305, 155.664 286.670 C 155.299 287.035, 155 287.996, 155 288.806 C 155 289.617, 154.386 290.779, 153.636 291.390 C 152.885 292, 150.781 297.225, 148.961 303 C 147.140 308.775, 145.279 313.927, 144.825 314.450 C 144.371 314.972, 144 316.660, 144 318.200 C 144 319.740, 143.600 321, 143.111 321 C 142.622 321, 141.451 324.038, 140.509 327.750 C 139.567 331.462, 138.455 335.400, 138.037 336.500 C 135.904 342.116, 135 346.021, 135 349.621 C 135 351.809, 134.552 354.048, 134.004 354.596 C 132.742 355.858, 132.003 360.387, 131.411 370.500 C 131.153 374.900, 130.179 380.300, 129.247 382.500 C 127.738 386.060, 127.513 392.511, 127.201 441.110 L 126.851 495.719 119.246 496.362 C 115.064 496.716, 110.613 497.679, 109.356 498.502 C 108.099 499.326, 105.956 500, 104.594 500 C 103.232 500, 101.840 500.450, 101.500 501 C 101.160 501.550, 100.254 502, 99.485 502 C 98.299 502, 92.968 505.067, 89.500 507.744 C 88.950 508.168, 87.375 509.240, 86 510.125 C 82.349 512.476, 71 523.729, 71 524.999 C 71 525.595, 70.046 527.077, 68.880 528.292 C 65.397 531.918, 63.008 536.331, 63.004 539.143 C 63.002 540.597, 62.325 542.045, 61.500 542.362 C 60.675 542.678, 60 543.825, 60 544.910 C 60 545.994, 59.550 547.160, 59 547.500 C 57.796 548.244, 57.578 1159, 58.782 1159 C 59.212 1159, 60.169 1161.138, 60.908 1163.750 C 62.259 1168.520, 68.848 1179.975, 70.250 1179.991 C 70.662 1179.996, 71 1180.647, 71 1181.439 C 71 1182.712, 82.477 1195, 83.666 1195 C 83.923 1195, 85.608 1196.125, 87.411 1197.500 C 89.214 1198.875, 91.171 1200, 91.761 1200 C 92.351 1200, 92.983 1200.337, 93.167 1200.750 C 93.350 1201.162, 95.975 1202.850, 99 1204.500 L 104.500 1207.500 325.258 1207.763 L 546.016 1208.026 542.625 1203.263 C 531.056 1187.010, 527.618 1168.302, 532.601 1148.714 C 534.389 1141.688, 534.370 1141.653, 527.231 1138.997 C 524.079 1137.824, 519.025 1135.784, 516 1134.465 C 512.975 1133.146, 503.300 1129.098, 494.500 1125.470 C 471.838 1116.127, 464.623 1110.841, 458.578 1099.150 C 454.548 1091.357, 452.928 1076.095, 455.467 1069.847 C 456.082 1068.336, 453.492 1068.165, 425.152 1067.847 C 408.109 1067.656, 393.842 1067.176, 393.446 1066.780 C 392.468 1065.801, 391.983 1059, 392.891 1059 C 393.290 1059, 393.525 1057.198, 393.412 1054.995 C 393.300 1052.792, 393.596 1050.750, 394.071 1050.456 C 394.546 1050.163, 394.654 1048.522, 394.312 1046.811 C 393.853 1044.514, 394.139 1043.372, 395.405 1042.446 C 396.491 1041.652, 396.733 1040.953, 396.064 1040.539 C 395.351 1040.099, 395.495 1038.944, 396.504 1036.993 C 397.327 1035.401, 398 1032.727, 398 1031.050 C 398 1029.372, 398.403 1028, 398.895 1028 C 399.401 1028, 399.447 1026.480, 399 1024.500 C 398.378 1021.743, 398.519 1021, 399.664 1021 C 400.577 1021, 400.827 1020.535, 400.337 1019.750 C 398.697 1017.125, 399.973 1011, 402.161 1011 C 402.622 1011, 403 1009.875, 403 1008.500 C 403 1007.125, 402.541 1006, 401.981 1006 C 400.945 1006, 401.388 1002.684, 403.049 998 C 403.537 996.625, 404.145 993.700, 404.400 991.500 C 404.655 989.300, 405.600 984.575, 406.499 981 C 407.398 977.425, 408.292 972.250, 408.487 969.500 C 408.970 962.664, 409.898 952.500, 410.038 952.500 C 410.101 952.500, 410.309 951.677, 410.499 950.672 C 410.690 949.666, 411.172 948.091, 411.569 947.172 C 411.967 946.252, 412.416 943.496, 412.566 941.046 C 412.733 938.302, 413.476 936.125, 414.498 935.378 C 415.767 934.450, 415.918 933.714, 415.137 932.256 C 414.412 930.901, 414.510 929.210, 415.474 926.424 C 416.234 924.228, 416.429 922.353, 415.916 922.167 C 414.403 921.616, 414.882 919.165, 416.703 918.146 C 418.139 917.343, 418.198 916.943, 417.080 915.597 C 416.351 914.719, 416.148 913.998, 416.628 913.995 C 417.107 913.992, 417.608 912.109, 417.741 909.809 C 417.873 907.510, 418.548 905.263, 419.241 904.815 C 420.225 904.178, 420.173 903.765, 419 902.924 C 417.865 902.109, 417.805 901.724, 418.756 901.338 C 419.447 901.058, 419.781 900.455, 419.499 899.999 C 419.217 899.542, 419.473 897.893, 420.069 896.334 C 420.665 894.775, 421.181 891.025, 421.217 888 C 421.280 882.549, 422.330 879.130, 424.343 877.822 C 425.054 877.359, 424.990 876.274, 424.142 874.412 C 423.191 872.326, 423.176 871.509, 424.077 870.952 C 424.726 870.552, 424.953 869.733, 424.582 869.132 C 424.211 868.532, 424.417 867.089, 425.040 865.925 C 425.986 864.157, 425.830 863.569, 424.086 862.348 C 422.939 861.544, 422 860.442, 422 859.898 C 422 859.354, 420.875 857.784, 419.500 856.409 C 418.125 855.034, 417 854.216, 417 854.590 C 417 855.583, 411.035 848.659, 411.016 847.644 C 411.007 847.173, 409.875 845.903, 408.500 844.821 C 407.125 843.740, 406 842.407, 406 841.861 C 406 841.314, 404.822 839.322, 403.381 837.433 C 401.612 835.113, 401.206 833.990, 402.131 833.970 C 403.055 833.949, 402.931 833.608, 401.750 832.920 C 400.787 832.359, 400 831.530, 400 831.077 C 400 830.625, 399.012 828.060, 397.805 825.377 C 396.598 822.695, 395.464 819.635, 395.285 818.578 C 395.107 817.522, 394.463 816.058, 393.856 815.326 C 393.248 814.594, 393.021 812.646, 393.350 810.998 C 393.689 809.307, 393.525 808, 392.975 808 C 392.439 808, 392 807.100, 392 806 C 392 804.900, 392.450 804, 393 804 C 394.656 804, 394.124 799.262, 392.394 798.598 C 391.231 798.151, 390.967 797.269, 391.437 795.395 C 391.797 793.961, 391.587 792.208, 390.967 791.460 C 390.107 790.424, 390.329 789.812, 391.924 788.815 C 394.019 787.507, 394.853 783, 393 783 C 392.450 783, 392 782.100, 392 781 C 392 779.900, 392.371 779, 392.825 779 C 393.279 779, 393.692 777.538, 393.744 775.750 C 393.832 772.697, 394.579 767.806, 395.042 767.250 C 395.156 767.112, 395.345 766.663, 395.461 766.250 C 396.118 763.921, 401.477 753.402, 402.278 752.871 C 402.825 752.508, 402.707 752.069, 401.999 751.833 C 401.185 751.562, 401.651 750.379, 403.386 748.318 C 404.824 746.609, 406 744.873, 406 744.459 C 406 739.568, 435.355 713, 440.758 713 C 441.307 713, 442.315 712.325, 443 711.500 C 443.685 710.675, 445.090 710, 446.122 710 C 447.155 710, 448 709.550, 448 709 C 448 708.450, 448.810 708, 449.800 708 C 450.790 708, 452.028 707.626, 452.550 707.169 C 453.929 705.962, 461.286 704, 464.432 704 C 465.917 704, 468.112 703.475, 469.310 702.834 C 472.674 701.034, 491.781 700.972, 496 702.748 C 497.925 703.559, 501.592 704.341, 504.149 704.487 C 506.706 704.633, 510.263 705.484, 512.053 706.376 C 513.843 707.269, 515.858 708, 516.531 708 C 517.204 708, 518.324 708.686, 519.020 709.524 C 519.716 710.362, 520.505 710.828, 520.774 710.559 C 521.043 710.291, 522.204 710.730, 523.354 711.535 C 524.504 712.341, 526.016 713, 526.714 713 C 528.386 713, 537.569 720.062, 537.262 721.112 C 537.131 721.561, 537.690 721.673, 538.504 721.360 C 539.342 721.039, 540.250 721.488, 540.599 722.396 C 540.937 723.278, 541.658 724, 542.202 724 C 543.356 724, 552 732.052, 552 733.127 C 552 733.529, 553.565 735.517, 555.477 737.544 C 557.389 739.572, 559.505 742.754, 560.178 744.616 C 560.851 746.477, 561.728 748, 562.128 748 C 563.166 748, 566.064 754.087, 565.478 755.036 C 565.208 755.472, 565.465 755.988, 566.048 756.183 C 566.632 756.377, 567.275 757.428, 567.478 758.518 C 567.681 759.608, 567.938 760.612, 568.048 760.750 C 568.159 760.888, 568.327 761.337, 568.420 761.750 C 568.514 762.163, 569.609 764.446, 570.854 766.825 C 572.098 769.203, 572.928 771.678, 572.697 772.325 C 572.466 772.971, 573.115 775.170, 574.139 777.210 C 576.168 781.255, 576.582 785, 575 785 C 573.549 785, 573.771 789.740, 575.250 790.341 C 576.192 790.723, 576.132 791.103, 575.008 791.882 C 573.869 792.672, 573.793 793.193, 574.687 794.087 C 575.580 794.980, 575.580 795.700, 574.688 797.128 C 573.783 798.577, 573.813 799.471, 574.820 801.084 C 576.268 803.402, 575.605 808.147, 573.354 811.583 C 572.592 812.745, 572.066 814.551, 572.183 815.598 C 572.371 817.274, 569.699 824.242, 566.954 829.236 C 566.429 830.191, 566 831.654, 566 832.486 C 566 833.319, 565.550 834, 565 834 C 564.450 834, 564 834.482, 564 835.071 C 564 835.661, 563.325 836.818, 562.500 837.643 C 559.343 840.800, 560.622 841.918, 565.659 840.402 C 576.147 837.246, 589.868 839.071, 604.590 845.582 C 607.787 846.996, 616.275 850.556, 623.451 853.492 C 630.628 856.429, 638.075 859.505, 640 860.328 L 643.500 861.823 643.203 855.662 C 642.206 834.989, 661.881 796.395, 677.233 788.910 C 681.836 786.666, 681.373 787.479, 689.993 766.500 C 692.254 761, 695.412 753.350, 697.013 749.500 C 698.614 745.650, 704.458 731.475, 710 718 C 715.543 704.525, 721.611 689.900, 723.486 685.500 C 726.988 677.280, 742.322 640.347, 752.548 615.500 C 757.965 602.340, 760.321 596.646, 769.515 574.500 C 774.969 561.360, 777.382 555.514, 781.276 546 C 783.190 541.325, 786.352 533.675, 788.303 529 C 790.254 524.325, 794.547 513.975, 797.842 506 C 801.138 498.025, 806.728 484.509, 810.265 475.965 L 816.696 460.430 811.671 457.465 C 758.965 426.361, 750.145 348.565, 789.418 261.183 C 794.020 250.943, 794.360 247.576, 791 245.500 C 790.382 245.118, 789.455 243.837, 788.941 242.653 C 787.740 239.891, 785.955 237.128, 783.750 234.616 C 782.788 233.520, 782 231.871, 782 230.952 C 782 230.032, 780.875 228.435, 779.500 227.403 C 778.125 226.370, 777 225.169, 777 224.733 C 777 223.970, 771.834 216.866, 766.549 210.363 C 765.147 208.637, 764 207.013, 764 206.753 C 764 206.493, 762.425 204.610, 760.500 202.569 C 758.575 200.528, 757 198.215, 757 197.429 C 757 196.643, 756.500 196, 755.890 196 C 754.620 196, 746.508 188.025, 745.889 186.168 C 745.336 184.507, 727.908 167, 726.809 167 C 726.329 167, 725.678 166.325, 725.362 165.500 C 725.045 164.675, 724.351 164, 723.819 164 C 723.288 164, 720.662 161.863, 717.984 159.250 C 711.716 153.136, 704.425 146.816, 702.226 145.591 C 701.277 145.062, 699.905 144.038, 699.179 143.315 C 698.452 142.592, 697.552 141.999, 697.179 141.999 C 696.805 141.998, 695.193 140.873, 693.594 139.499 C 691.996 138.124, 690.324 137, 689.879 137 C 689.433 137, 687.688 135.650, 686 134 C 684.312 132.350, 682.309 131, 681.549 131 C 680.789 131, 680.017 130.646, 679.833 130.213 C 679.650 129.780, 677.250 128.131, 674.500 126.549 C 671.750 124.967, 669.275 123.389, 669 123.042 C 667.994 121.772, 660.844 118, 659.443 118 C 658.649 118, 658 117.546, 658 116.992 C 658 116.437, 654.513 114.300, 650.250 112.242 C 645.987 110.184, 642.350 108.162, 642.167 107.750 C 641.983 107.338, 641.399 107, 640.868 107 C 640.338 107, 638.041 106.100, 635.764 105 C 633.487 103.900, 630.584 103, 629.312 103 C 628.040 103, 627 102.583, 627 102.073 C 627 100.751, 621.134 98, 618.315 98 C 617.007 98, 615.683 97.337, 615.372 96.527 C 615.061 95.717, 613.163 94.767, 611.153 94.415 C 609.144 94.063, 606.503 93.151, 605.285 92.388 C 604.067 91.624, 602.181 91, 601.094 91 C 600.007 91, 598.840 90.550, 598.500 90 C 598.160 89.450, 596.585 89, 595 89 C 593.415 89, 591.887 88.626, 591.604 88.169 C 591.322 87.712, 587.808 86.730, 583.795 85.986 C 579.783 85.243, 576.228 84.235, 575.897 83.745 C 575.565 83.256, 574.215 82.677, 572.897 82.457 C 571.578 82.238, 567.350 81.342, 563.500 80.468 C 550.654 77.548, 547.537 76.966, 542 76.455 C 538.975 76.175, 531.100 75.262, 524.500 74.426 C 509.554 72.533, 478.302 71.869, 458.500 73.024 M 900.102 78.250 C 899.340 80.037, 897.880 83.388, 896.858 85.695 C 895.836 88.002, 895 90.145, 895 90.456 C 895 91.142, 891.604 99.009, 888.937 104.500 C 887.869 106.700, 886.980 108.950, 886.963 109.500 C 886.946 110.050, 886.063 112.300, 885 114.500 C 883.937 116.700, 883.053 119.287, 883.034 120.250 C 883.015 121.213, 882.586 122, 882.079 122 C 881.573 122, 880.865 123.340, 880.505 124.978 C 880.145 126.616, 878.761 130.103, 877.430 132.728 C 876.098 135.353, 875.006 138.287, 875.004 139.250 C 875.002 140.213, 874.550 141, 874 141 C 873.450 141, 873 141.715, 873 142.588 C 873 143.462, 871.650 147.093, 870 150.658 C 868.350 154.223, 867 157.564, 867 158.083 C 867 158.602, 866.566 159.809, 866.035 160.764 C 865.504 161.719, 864.229 164.525, 863.200 167 C 857.030 181.848, 853.548 189.955, 851.886 193.345 C 850.849 195.459, 849.985 197.709, 849.966 198.345 C 849.947 198.980, 849.063 201.300, 848 203.500 C 846.937 205.700, 846.053 208.287, 846.034 209.250 C 846.015 210.213, 845.550 211, 845 211 C 844.450 211, 844 211.644, 844 212.430 C 844 213.217, 842.650 216.777, 841 220.342 C 839.350 223.907, 838 227.319, 838 227.925 C 838 228.531, 837.573 229.809, 837.051 230.764 C 834.913 234.676, 830 245.857, 830 246.812 C 830 247.376, 829.362 249.112, 828.583 250.669 C 827.803 252.226, 825.504 257.550, 823.473 262.500 C 821.442 267.450, 818.944 273.300, 817.922 275.500 C 816.899 277.700, 815.775 280.738, 815.423 282.250 C 815.071 283.762, 814.382 285, 813.892 285 C 813.401 285, 813 285.719, 813 286.599 C 813 287.478, 812.345 289.616, 811.545 291.349 C 809.526 295.720, 807.145 302.494, 805.341 309 C 804.502 312.025, 803.448 314.950, 802.997 315.500 C 802.547 316.050, 801.867 318.300, 801.486 320.500 C 801.104 322.700, 800.161 326.437, 799.389 328.805 C 796.790 336.782, 795.520 366.890, 797.295 378.500 C 801.161 403.801, 817.200 425.759, 840 436.966 C 843.575 438.723, 847.281 440.575, 848.236 441.081 C 849.191 441.586, 850.654 442, 851.486 442 C 852.319 442, 853 442.419, 853 442.930 C 853 443.442, 854.013 444.005, 855.250 444.181 C 859.186 444.742, 858.837 445.942, 845.549 477.500 C 843.696 481.900, 840.603 489.325, 838.675 494 C 829.398 516.491, 815.363 550.430, 812 558.500 C 809.938 563.450, 803.901 578.075, 798.586 591 C 793.271 603.925, 787.390 618.100, 785.517 622.500 C 783.644 626.900, 780.263 635, 778.004 640.500 C 775.745 646, 772.499 653.875, 770.790 658 C 769.081 662.125, 766.475 668.425, 765 672 C 761.297 680.975, 757.071 691.140, 750.449 707 C 747.350 714.425, 742.778 725.450, 740.290 731.500 C 737.802 737.550, 733.171 748.800, 729.998 756.500 C 726.825 764.200, 720.343 779.950, 715.593 791.500 C 710.843 803.050, 706.543 813.475, 706.038 814.667 C 705.286 816.439, 704.287 816.833, 700.544 816.833 C 691.614 816.833, 689.386 819.355, 681.413 838.490 C 675.460 852.775, 676.215 865, 683.051 865 C 684.722 865, 684.099 867.317, 679.416 878.527 C 676.894 884.562, 674.206 891.211, 673.442 893.301 C 672.678 895.392, 671.360 898.317, 670.514 899.801 C 669.667 901.286, 666.314 909.025, 663.062 917 C 656.322 933.531, 656.214 933.618, 647.515 929.636 C 641.331 926.804, 641.338 927.582, 647.375 913.280 C 652.727 900.599, 653.072 900.989, 627 890.196 C 622.875 888.489, 610.917 883.500, 600.428 879.109 C 574.651 868.321, 571.791 868.059, 569.085 876.233 C 568.489 878.030, 565.339 885.791, 562.084 893.479 C 555.063 910.062, 553.961 907.331, 570.362 914 C 587.952 921.153, 587.508 920.140, 580.455 937.017 C 577.356 944.433, 574.604 951.018, 574.341 951.651 C 573.101 954.631, 562.328 951.645, 546 943.796 C 544.625 943.135, 543.176 942.442, 542.780 942.257 C 542.384 942.071, 541.334 943.625, 540.447 945.710 C 538.766 949.657, 531.382 967.484, 527.485 977 C 526.246 980.025, 522.706 988.550, 519.617 995.945 C 516.527 1003.340, 514.007 1009.865, 514.017 1010.445 C 514.026 1011.025, 522.171 1014.843, 532.117 1018.929 C 542.063 1023.015, 550.411 1026.906, 550.668 1027.577 C 551.408 1029.506, 538.944 1059, 537.389 1059 C 536.639 1059, 528.032 1055.649, 518.263 1051.552 C 508.493 1047.456, 500.170 1044.433, 499.767 1044.835 C 498.850 1045.750, 488.342 1070.858, 486.218 1077.211 C 484.961 1080.970, 484.880 1082.441, 485.815 1084.494 C 487.142 1087.405, 487.511 1087.579, 524 1102.514 C 527.025 1103.752, 534 1106.649, 539.500 1108.952 C 562.836 1118.724, 562.165 1118.849, 568.516 1103.512 C 571.811 1095.555, 573.780 1092.003, 574.892 1092.010 C 576.857 1092.022, 586.542 1096.450, 587.306 1097.686 C 587.808 1098.499, 583.622 1109.300, 570.516 1141 C 561.297 1163.301, 561.739 1175.995, 572.085 1186 C 576.150 1189.931, 583.836 1193.577, 611.500 1204.696 C 630.013 1212.137, 644.180 1204.540, 653.419 1182.216 C 656.086 1175.772, 659.952 1166.450, 662.009 1161.500 C 664.067 1156.550, 670.099 1141.925, 675.414 1129 C 680.729 1116.075, 686.601 1101.900, 688.463 1097.500 C 691.735 1089.768, 694.234 1083.738, 702.966 1062.500 C 705.227 1057, 707.935 1050.475, 708.983 1048 C 710.031 1045.525, 712.649 1039.225, 714.800 1034 C 716.952 1028.775, 723.469 1013.025, 729.284 999 C 735.099 984.975, 745.967 958.650, 753.436 940.500 C 770.793 898.321, 768.323 902.620, 775.608 901.918 C 783.214 901.186, 790 895.152, 790 889.122 C 790 888.305, 791.800 883.246, 794 877.881 C 799.300 864.957, 799.319 861.188, 794.111 855.876 L 790.222 851.908 794.695 841.204 C 797.156 835.317, 799.766 828.925, 800.496 827 C 801.225 825.075, 803.930 818.550, 806.506 812.500 C 811.447 800.895, 814.208 794.220, 823.462 771.500 C 826.598 763.800, 830.237 755.025, 831.549 752 C 834.663 744.818, 846.750 715.775, 849.028 710 C 850.004 707.525, 852.595 701.225, 854.785 696 C 856.974 690.775, 861.551 679.750, 864.955 671.500 C 876.230 644.172, 879.778 635.598, 883.994 625.500 C 890.537 609.828, 894.337 600.664, 900.997 584.500 C 904.397 576.250, 908.769 565.675, 910.714 561 C 912.659 556.325, 915.251 550.025, 916.474 547 C 917.697 543.975, 921.435 534.975, 924.781 527 C 928.127 519.025, 935.226 501.925, 940.557 489 C 957.313 448.376, 958.055 446.582, 959.646 442.864 C 961.083 439.505, 962.017 438.916, 971.951 435.108 C 990.242 428.097, 1005.961 417.524, 1016.500 405.143 C 1023.405 397.030, 1024.731 396.770, 1026.914 403.096 C 1031.429 416.180, 1046.492 431.394, 1061.601 438.130 C 1073.002 443.213, 1075.086 444, 1077.140 444 C 1078.279 444, 1081.774 444.664, 1084.907 445.476 C 1088.040 446.288, 1093.505 447.391, 1097.052 447.927 C 1104.457 449.046, 1116.863 451.470, 1125.315 453.448 C 1130.952 454.768, 1131.157 454.744, 1132.023 452.655 C 1132.515 451.470, 1134.758 446, 1137.008 440.500 C 1142.333 427.487, 1142.349 427.448, 1145.395 420.900 C 1146.828 417.821, 1148.015 414.896, 1148.034 414.400 C 1148.053 413.905, 1148.937 411.700, 1150 409.500 C 1151.063 407.300, 1151.947 404.712, 1151.966 403.750 C 1151.985 402.788, 1152.410 402, 1152.912 402 C 1153.414 402, 1154.128 400.200, 1154.500 398 C 1154.872 395.800, 1155.474 393.996, 1155.838 393.992 C 1156.565 393.984, 1159 389.139, 1159 387.702 C 1159 387.207, 1159.638 385.384, 1160.418 383.651 C 1162.890 378.159, 1165.901 370.985, 1166.052 370.229 C 1166.132 369.828, 1166.584 368.778, 1167.056 367.895 C 1167.912 366.296, 1156.966 363.011, 1150.722 362.994 C 1149.500 362.990, 1147.345 362.385, 1145.933 361.648 C 1144.522 360.912, 1142.228 360.023, 1140.835 359.674 C 1125.831 355.908, 1121.184 331.743, 1131.540 311.332 C 1132.888 308.675, 1133.994 305.931, 1133.996 305.236 C 1133.998 304.541, 1134.428 303.191, 1134.952 302.236 C 1135.475 301.281, 1136.649 298.700, 1137.560 296.500 C 1138.471 294.300, 1139.795 291.150, 1140.503 289.500 C 1141.210 287.850, 1142.262 285.375, 1142.840 284 C 1143.418 282.625, 1144.815 279.387, 1145.945 276.805 C 1147.075 274.223, 1148 271.855, 1148 271.544 C 1148 271.233, 1148.932 268.846, 1150.072 266.239 C 1151.211 263.633, 1152.733 260.150, 1153.454 258.500 C 1154.175 256.850, 1155.982 252.575, 1157.469 249 C 1158.957 245.425, 1160.810 241.082, 1161.587 239.349 C 1162.364 237.616, 1163 235.787, 1163 235.286 C 1163 234.785, 1164.125 232.042, 1165.500 229.192 C 1166.875 226.342, 1168 223.333, 1168 222.505 C 1168 221.677, 1168.414 221, 1168.921 221 C 1169.427 221, 1170.154 219.538, 1170.536 217.750 C 1170.918 215.963, 1171.574 214.050, 1171.993 213.500 C 1172.412 212.950, 1173.097 211.375, 1173.515 210 C 1174.196 207.762, 1176.300 202.800, 1180.575 193.349 C 1181.359 191.616, 1182 189.845, 1182 189.415 C 1182 188.984, 1182.854 186.802, 1183.898 184.566 C 1184.943 182.330, 1187.444 176.450, 1189.457 171.500 C 1191.470 166.550, 1193.738 161.150, 1194.498 159.500 C 1198.030 151.826, 1200 147.024, 1200 146.085 C 1200 145.522, 1200.846 143.554, 1201.880 141.713 C 1202.915 139.871, 1204.076 136.933, 1204.460 135.182 C 1204.844 133.432, 1205.534 132, 1205.992 132 C 1206.450 132, 1207.128 130.200, 1207.500 128 C 1207.872 125.800, 1208.537 124, 1208.979 124 C 1209.422 124, 1210.069 122.863, 1210.417 121.473 C 1210.766 120.084, 1212.086 116.596, 1213.351 113.723 C 1214.615 110.851, 1216.450 106.475, 1217.428 104 C 1218.405 101.525, 1219.595 98.742, 1220.071 97.815 C 1220.808 96.380, 1220.087 95.959, 1215.218 94.983 C 1209.534 93.844, 1198.168 91.557, 1180 87.896 C 1174.775 86.843, 1166.225 85.108, 1161 84.041 C 1152.112 82.225, 1141.864 80.225, 1130.769 78.139 C 1125.645 77.177, 1124.797 77.628, 1123.508 82 C 1123.102 83.375, 1121.975 86.075, 1121.003 88 C 1120.030 89.925, 1118.426 93.525, 1117.437 96 C 1116.448 98.475, 1114.101 103.875, 1112.222 108 C 1110.342 112.125, 1107.705 117.975, 1106.363 121 C 1105.020 124.025, 1103.264 127.774, 1102.460 129.331 C 1101.657 130.888, 1101 132.531, 1101 132.983 C 1101 133.434, 1099.200 137.609, 1097 142.260 C 1094.800 146.912, 1093 151.456, 1093 152.359 C 1093 153.261, 1092.602 154, 1092.117 154 C 1091.329 154, 1090.075 156.768, 1089.624 159.500 C 1089.533 160.050, 1088.456 162.613, 1087.230 165.195 C 1086.003 167.777, 1085 170.328, 1085 170.864 C 1085 171.400, 1084.355 173.112, 1083.567 174.669 C 1082.352 177.069, 1076.938 189.637, 1071.363 203 C 1070.560 204.925, 1069.475 207.281, 1068.952 208.236 C 1068.428 209.191, 1067.998 210.541, 1067.996 211.236 C 1067.994 211.931, 1066.902 214.647, 1065.570 217.272 C 1064.239 219.897, 1062.855 223.384, 1062.495 225.022 C 1062.135 226.660, 1061.427 228, 1060.921 228 C 1060.414 228, 1059.985 228.787, 1059.966 229.750 C 1059.947 230.713, 1059.063 233.300, 1058 235.500 C 1056.937 237.700, 1056.053 240.020, 1056.034 240.655 C 1056.015 241.291, 1055.121 243.541, 1054.046 245.655 C 1051.054 251.544, 1048 258.769, 1048 259.959 C 1048 260.546, 1047.568 261.809, 1047.040 262.764 C 1046.511 263.719, 1044.658 267.875, 1042.922 272 C 1041.186 276.125, 1038.918 281.388, 1037.882 283.695 C 1036.847 286.002, 1036 288.371, 1036 288.959 C 1036 289.546, 1035.570 290.809, 1035.044 291.764 C 1033.184 295.144, 1028 307.153, 1028 308.083 C 1028 308.602, 1027.572 309.809, 1027.048 310.764 C 1026.525 311.719, 1025.373 314.300, 1024.487 316.500 C 1023.602 318.700, 1022.230 321.774, 1021.439 323.331 C 1020.647 324.888, 1020 326.801, 1020 327.581 C 1020 328.361, 1019.550 329, 1019 329 C 1018.450 329, 1018 329.900, 1018 331 C 1018 332.100, 1017.550 333, 1017 333 C 1016.450 333, 1016 333.640, 1016 334.423 C 1016 335.206, 1014.875 337.184, 1013.500 338.818 C 1012.125 340.452, 1011 342.015, 1011 342.292 C 1011 342.871, 1006.663 348.056, 1002.978 351.882 C 999.980 354.993, 988.608 363, 987.186 363 C 986.637 363, 984.459 363.859, 982.345 364.908 C 976.780 367.670, 965.671 369.310, 956.483 368.725 C 946.226 368.072, 934.741 366.200, 934.041 365.067 C 933.741 364.581, 931.809 363.867, 929.748 363.480 C 927.686 363.094, 926 362.432, 926 362.010 C 926 361.588, 924.722 360.713, 923.160 360.066 C 908.520 354.002, 899.319 328.319, 906.280 312.947 C 907.139 311.051, 908.138 308.375, 908.500 307 C 909.225 304.248, 911.562 298.476, 913.048 295.764 C 913.572 294.809, 914 293.346, 914 292.514 C 914 291.681, 914.414 291, 914.921 291 C 915.427 291, 916.159 289.552, 916.548 287.783 C 916.936 286.013, 917.625 283.876, 918.079 283.033 C 918.532 282.190, 919.649 279.700, 920.560 277.500 C 921.471 275.300, 922.809 272.150, 923.534 270.500 C 924.259 268.850, 925.582 265.700, 926.474 263.500 C 927.367 261.300, 928.525 258.719, 929.048 257.764 C 929.572 256.809, 930 255.583, 930 255.041 C 930 254.498, 931.063 251.680, 932.363 248.777 C 933.663 245.875, 936.437 239.450, 938.528 234.500 C 940.619 229.550, 943.156 223.612, 944.165 221.305 C 945.174 218.998, 946 216.719, 946 216.242 C 946 215.765, 947.125 213.042, 948.500 210.192 C 949.875 207.342, 951 204.333, 951 203.505 C 951 202.677, 951.450 202, 952 202 C 952.550 202, 953 201.300, 953 200.445 C 953 199.590, 953.925 196.777, 955.055 194.195 C 956.185 191.613, 957.535 188.488, 958.055 187.250 C 958.575 186.012, 959.425 183.988, 959.945 182.750 C 960.465 181.512, 961.815 178.387, 962.945 175.805 C 964.075 173.223, 965 170.720, 965 170.243 C 965 169.766, 965.841 167.604, 966.868 165.438 C 968.910 161.135, 970.519 157.402, 973.956 149 C 975.194 145.975, 976.808 142.150, 977.543 140.500 C 978.279 138.850, 979.862 135.025, 981.061 132 C 982.260 128.975, 984.312 124.205, 985.620 121.400 C 986.929 118.596, 988 115.834, 988 115.265 C 988 114.695, 988.672 112.940, 989.494 111.364 C 990.315 109.789, 990.990 107.713, 990.994 106.750 C 990.997 105.787, 991.344 105, 991.765 105 C 992.679 105, 996.352 95.019, 995.684 94.351 C 995.154 93.821, 983.546 91.219, 967.500 88.035 C 961.450 86.834, 952.675 85.020, 948 84.004 C 943.325 82.988, 933.875 81.166, 927 79.956 C 920.125 78.747, 911.960 77.136, 908.856 76.378 C 901.434 74.566, 901.697 74.510, 900.102 78.250 M 467.107 222.184 C 458.091 222.629, 450.186 223.431, 449.541 223.966 C 448.896 224.501, 445.810 225.240, 442.684 225.607 C 439.558 225.975, 437 226.663, 437 227.138 C 437 227.612, 435.452 228, 433.559 228 C 431.666 228, 429.871 228.399, 429.570 228.887 C 429.269 229.374, 427.387 230.080, 425.388 230.455 C 423.389 230.830, 421.022 231.501, 420.127 231.946 C 417.521 233.241, 411.505 235, 409.679 235 C 408.756 235, 408 235.450, 408 236 C 408 236.550, 406.875 237, 405.500 237 C 404.125 237, 402.996 237.338, 402.992 237.750 C 402.981 238.868, 397.935 241, 395.301 241 C 394.035 241, 393 241.420, 393 241.933 C 393 242.446, 391.988 243.181, 390.750 243.567 C 389.512 243.954, 388.275 244.546, 388 244.885 C 387.491 245.511, 386.199 246.276, 378.079 250.758 C 375.560 252.149, 372.306 254.122, 370.846 255.143 C 369.386 256.164, 367.899 257, 367.542 257 C 366.639 257, 353.917 267.263, 351.595 269.865 C 350.547 271.039, 349.186 272, 348.569 272 C 347.009 272, 327 291.946, 327 293.501 C 327 294.198, 325.298 296.305, 323.218 298.184 C 321.138 300.063, 318.101 303.715, 316.468 306.299 C 314.836 308.882, 313.211 310.997, 312.858 310.998 C 312.506 310.999, 311.934 312.125, 311.589 313.500 C 311.244 314.875, 310.520 316, 309.981 316 C 309.441 316, 309 316.527, 309 317.171 C 309 317.815, 308.252 319.169, 307.339 320.178 C 305.385 322.337, 304.027 324.657, 300.622 331.656 C 299.242 334.492, 297.638 337.106, 297.057 337.465 C 296.475 337.824, 296 339.249, 296 340.630 C 296 342.012, 295.343 343.800, 294.539 344.604 C 293.736 345.407, 292.779 347.737, 292.413 349.782 C 292.046 351.827, 291.068 354.278, 290.238 355.228 C 289.408 356.179, 288.646 357.754, 288.544 358.728 C 288.353 360.553, 287.738 362.315, 285.479 367.500 C 284.761 369.150, 283.878 372.750, 283.518 375.500 C 283.158 378.250, 282.485 381.400, 282.022 382.500 C 280.198 386.839, 279.816 388.777, 279.363 396 C 279.105 400.125, 278.242 404.497, 277.447 405.715 C 276.240 407.562, 276 415.233, 276 451.965 L 276 496 484.072 496 L 692.144 496 691.906 454.250 C 691.770 430.504, 691.246 411.206, 690.690 409.500 C 690.153 407.850, 689.647 403.832, 689.567 400.570 C 689.477 396.934, 688.953 394.484, 688.211 394.237 C 687.481 393.994, 687 391.873, 687 388.903 C 687 386.191, 686.605 383.191, 686.123 382.236 C 685.016 380.046, 683.372 374.545, 682.467 370 C 682.083 368.075, 681.441 366.050, 681.040 365.500 C 680.639 364.950, 679.729 362.351, 679.018 359.724 C 678.307 357.098, 677.337 354.709, 676.863 354.415 C 676.388 354.122, 676 353.078, 676 352.095 C 676 350.092, 673.329 344.321, 672.031 343.519 C 671.567 343.232, 671.402 342.180, 671.663 341.179 C 671.925 340.179, 671.433 338.774, 670.570 338.058 C 669.706 337.341, 669 335.980, 669 335.033 C 669 334.085, 668.100 332.495, 667 331.500 C 665.900 330.505, 665 329.240, 665 328.689 C 665 328.139, 663.952 326.296, 662.671 324.594 C 661.389 322.892, 659.260 319.313, 657.938 316.640 C 656.617 313.967, 654.515 310.977, 653.268 309.996 C 652.020 309.015, 651 307.489, 651 306.606 C 651 305.723, 650.325 305, 649.500 305 C 648.675 305, 647.998 304.438, 647.995 303.750 C 647.993 303.063, 646.418 300.787, 644.495 298.694 C 642.573 296.601, 641 294.525, 641 294.081 C 641 293.014, 620.094 272, 619.032 272 C 618.580 272, 616.025 269.927, 613.355 267.393 C 608.291 262.587, 600.740 257, 599.309 257 C 598.852 257, 596.683 255.434, 594.489 253.519 C 592.295 251.605, 589.894 250.030, 589.154 250.019 C 588.414 250.009, 586.528 249.088, 584.962 247.973 C 583.397 246.858, 580.627 245.277, 578.808 244.458 C 576.989 243.640, 574.825 242.585, 574 242.114 C 570.092 239.885, 562.744 237, 560.973 237 C 559.888 237, 559 236.550, 559 236 C 559 235.450, 558.319 235, 557.486 235 C 556.654 235, 555.191 234.587, 554.236 234.083 C 553.281 233.579, 549.800 232.419, 546.500 231.507 C 543.200 230.594, 539.600 229.465, 538.500 228.999 C 536.304 228.068, 533.539 227.421, 524.500 225.723 C 521.200 225.104, 518.255 224.248, 517.956 223.823 C 517.657 223.397, 510.907 222.791, 502.956 222.476 C 495.005 222.162, 487.375 221.786, 486 221.640 C 484.625 221.495, 476.123 221.740, 467.107 222.184 M 461.500 252.940 C 395.901 263.304, 343.868 304.092, 320.349 363.587 C 313.319 381.370, 311.963 386.044, 309.929 399.500 C 309.347 403.350, 308.224 409.081, 307.435 412.235 C 306.387 416.422, 306 424.451, 306 441.985 L 306 466 484.160 466 L 662.319 466 661.648 441.398 C 661.279 427.867, 660.567 414.929, 660.066 412.648 C 659.565 410.367, 658.651 405.125, 658.034 401 C 655.876 386.559, 650.565 369.241, 644.402 356.554 C 643.081 353.833, 641.985 351.133, 641.966 350.554 C 641.911 348.860, 631.024 332.004, 624.500 323.513 C 621.200 319.218, 617.100 313.858, 615.389 311.602 C 595.777 285.740, 556.911 264.058, 512 253.927 C 505.612 252.486, 468.914 251.769, 461.500 252.940 M 476.500 732.945 C 474.850 733.366, 471.025 734.280, 468 734.976 C 451.912 738.676, 436.536 751.714, 428.626 768.361 L 423.941 778.222 423.941 793.560 C 423.941 812.480, 426.525 818.636, 441.257 834.817 C 455.503 850.465, 459.292 866.257, 453.627 886.372 C 452.832 889.193, 451.668 894.875, 451.039 899 C 450.410 903.125, 449.502 908.750, 449.022 911.500 C 448.541 914.250, 447.647 921, 447.035 926.500 C 446.424 932, 444.836 941.450, 443.507 947.500 C 440.335 961.943, 439 969.829, 439 974.129 C 439 976.058, 438.353 979.856, 437.561 982.568 C 435.352 990.140, 433 1003.697, 432.999 1008.860 C 432.999 1011.412, 432.367 1016.650, 431.595 1020.500 C 430.823 1024.350, 429.895 1029.638, 429.534 1032.250 L 428.877 1037 444.280 1037 C 454.424 1037, 461.233 1037.467, 464.225 1038.367 C 468.768 1039.734, 468.768 1039.734, 470.083 1035.749 C 472.042 1029.812, 476.422 1023.436, 480.702 1020.291 C 484.500 1017.500, 484.500 1017.500, 484.579 1009 C 484.651 1001.289, 485.080 999.479, 489.201 989.500 C 515.952 924.725, 516.092 924.432, 522.881 918.975 C 526.778 915.843, 526.827 915.722, 526.284 910.459 C 525.568 903.529, 526.789 898.960, 534.057 881.361 L 540.059 866.831 536.885 863.216 C 527.107 852.079, 526.652 839.786, 535.395 822.945 C 546.943 800.700, 547.172 787.172, 536.366 765.608 C 529.654 752.212, 508.043 735, 497.937 735 C 496.496 735, 493.109 734.330, 490.409 733.511 C 485.104 731.901, 481.214 731.743, 476.500 732.945" stroke="none" fill="#ffffff" fill-rule="evenodd"/><path d="M 900.102 78.250 C 899.340 80.037, 897.880 83.388, 896.858 85.695 C 895.836 88.002, 895 90.145, 895 90.456 C 895 91.142, 891.604 99.009, 888.937 104.500 C 887.869 106.700, 886.980 108.950, 886.963 109.500 C 886.946 110.050, 886.063 112.300, 885 114.500 C 883.937 116.700, 883.053 119.287, 883.034 120.250 C 883.015 121.213, 882.586 122, 882.079 122 C 881.573 122, 880.865 123.340, 880.505 124.978 C 880.145 126.616, 878.761 130.103, 877.430 132.728 C 876.098 135.353, 875.006 138.287, 875.004 139.250 C 875.002 140.213, 874.550 141, 874 141 C 873.450 141, 873 141.715, 873 142.588 C 873 143.462, 871.650 147.093, 870 150.658 C 868.350 154.223, 867 157.564, 867 158.083 C 867 158.602, 866.566 159.809, 866.035 160.764 C 865.504 161.719, 864.229 164.525, 863.200 167 C 857.030 181.848, 853.548 189.955, 851.886 193.345 C 850.849 195.459, 849.985 197.709, 849.966 198.345 C 849.947 198.980, 849.063 201.300, 848 203.500 C 846.937 205.700, 846.053 208.287, 846.034 209.250 C 846.015 210.213, 845.550 211, 845 211 C 844.450 211, 844 211.644, 844 212.430 C 844 213.217, 842.650 216.777, 841 220.342 C 839.350 223.907, 838 227.319, 838 227.925 C 838 228.531, 837.573 229.809, 837.051 230.764 C 834.913 234.676, 830 245.857, 830 246.812 C 830 247.376, 829.362 249.112, 828.583 250.669 C 827.803 252.226, 825.504 257.550, 823.473 262.500 C 821.442 267.450, 818.944 273.300, 817.922 275.500 C 816.899 277.700, 815.775 280.738, 815.423 282.250 C 815.071 283.762, 814.382 285, 813.892 285 C 813.401 285, 813 285.719, 813 286.599 C 813 287.478, 812.345 289.616, 811.545 291.349 C 809.526 295.720, 807.145 302.494, 805.341 309 C 804.502 312.025, 803.448 314.950, 802.997 315.500 C 802.547 316.050, 801.867 318.300, 801.486 320.500 C 801.104 322.700, 800.161 326.437, 799.389 328.805 C 796.790 336.782, 795.520 366.890, 797.295 378.500 C 801.161 403.801, 817.200 425.759, 840 436.966 C 843.575 438.723, 847.281 440.575, 848.236 441.081 C 849.191 441.586, 850.654 442, 851.486 442 C 852.319 442, 853 442.419, 853 442.930 C 853 443.442, 854.013 444.005, 855.250 444.181 C 859.186 444.742, 858.837 445.942, 845.549 477.500 C 843.696 481.900, 840.603 489.325, 838.675 494 C 829.398 516.491, 815.363 550.430, 812 558.500 C 809.938 563.450, 803.901 578.075, 798.586 591 C 793.271 603.925, 787.390 618.100, 785.517 622.500 C 783.644 626.900, 780.263 635, 778.004 640.500 C 775.745 646, 772.499 653.875, 770.790 658 C 769.081 662.125, 766.475 668.425, 765 672 C 761.297 680.975, 757.071 691.140, 750.449 707 C 747.350 714.425, 742.778 725.450, 740.290 731.500 C 737.802 737.550, 733.171 748.800, 729.998 756.500 C 726.825 764.200, 720.343 779.950, 715.593 791.500 C 710.843 803.050, 706.543 813.475, 706.038 814.667 C 705.286 816.439, 704.287 816.833, 700.544 816.833 C 691.614 816.833, 689.386 819.355, 681.413 838.490 C 675.460 852.775, 676.215 865, 683.051 865 C 684.722 865, 684.099 867.317, 679.416 878.527 C 676.894 884.562, 674.206 891.211, 673.442 893.301 C 672.678 895.392, 671.360 898.317, 670.514 899.801 C 669.667 901.286, 666.314 909.025, 663.062 917 C 656.322 933.531, 656.214 933.618, 647.515 929.636 C 641.331 926.804, 641.338 927.582, 647.375 913.280 C 652.727 900.599, 653.072 900.989, 627 890.196 C 622.875 888.489, 610.917 883.500, 600.428 879.109 C 574.651 868.321, 571.791 868.059, 569.085 876.233 C 568.489 878.030, 565.339 885.791, 562.084 893.479 C 555.063 910.062, 553.961 907.331, 570.362 914 C 587.952 921.153, 587.508 920.140, 580.455 937.017 C 577.356 944.433, 574.604 951.018, 574.341 951.651 C 573.101 954.631, 562.328 951.645, 546 943.796 C 544.625 943.135, 543.176 942.442, 542.780 942.257 C 542.384 942.071, 541.334 943.625, 540.447 945.710 C 538.766 949.657, 531.382 967.484, 527.485 977 C 526.246 980.025, 522.706 988.550, 519.617 995.945 C 516.527 1003.340, 514.007 1009.865, 514.017 1010.445 C 514.026 1011.025, 522.171 1014.843, 532.117 1018.929 C 542.063 1023.015, 550.411 1026.906, 550.668 1027.577 C 551.408 1029.506, 538.944 1059, 537.389 1059 C 536.639 1059, 528.032 1055.649, 518.263 1051.552 C 508.493 1047.456, 500.170 1044.433, 499.767 1044.835 C 498.850 1045.750, 488.342 1070.858, 486.218 1077.211 C 484.961 1080.970, 484.880 1082.441, 485.815 1084.494 C 487.142 1087.405, 487.511 1087.579, 524 1102.514 C 527.025 1103.752, 534 1106.649, 539.500 1108.952 C 562.836 1118.724, 562.165 1118.849, 568.516 1103.512 C 571.811 1095.555, 573.780 1092.003, 574.892 1092.010 C 576.857 1092.022, 586.542 1096.450, 587.306 1097.686 C 587.808 1098.499, 583.622 1109.300, 570.516 1141 C 561.297 1163.301, 561.739 1175.995, 572.085 1186 C 576.150 1189.931, 583.836 1193.577, 611.500 1204.696 C 630.013 1212.137, 644.180 1204.540, 653.419 1182.216 C 656.086 1175.772, 659.952 1166.450, 662.009 1161.500 C 664.067 1156.550, 670.099 1141.925, 675.414 1129 C 680.729 1116.075, 686.601 1101.900, 688.463 1097.500 C 691.735 1089.768, 694.234 1083.738, 702.966 1062.500 C 705.227 1057, 707.935 1050.475, 708.983 1048 C 710.031 1045.525, 712.649 1039.225, 714.800 1034 C 716.952 1028.775, 723.469 1013.025, 729.284 999 C 735.099 984.975, 745.967 958.650, 753.436 940.500 C 770.793 898.321, 768.323 902.620, 775.608 901.918 C 783.214 901.186, 790 895.152, 790 889.122 C 790 888.305, 791.800 883.246, 794 877.881 C 799.300 864.957, 799.319 861.188, 794.111 855.876 L 790.222 851.908 794.695 841.204 C 797.156 835.317, 799.766 828.925, 800.496 827 C 801.225 825.075, 803.930 818.550, 806.506 812.500 C 811.447 800.895, 814.208 794.220, 823.462 771.500 C 826.598 763.800, 830.237 755.025, 831.549 752 C 834.663 744.818, 846.750 715.775, 849.028 710 C 850.004 707.525, 852.595 701.225, 854.785 696 C 856.974 690.775, 861.551 679.750, 864.955 671.500 C 876.230 644.172, 879.778 635.598, 883.994 625.500 C 890.537 609.828, 894.337 600.664, 900.997 584.500 C 904.397 576.250, 908.769 565.675, 910.714 561 C 912.659 556.325, 915.251 550.025, 916.474 547 C 917.697 543.975, 921.435 534.975, 924.781 527 C 928.127 519.025, 935.226 501.925, 940.557 489 C 957.313 448.376, 958.055 446.582, 959.646 442.864 C 961.083 439.505, 962.017 438.916, 971.951 435.108 C 990.242 428.097, 1005.961 417.524, 1016.500 405.143 C 1023.405 397.030, 1024.731 396.770, 1026.914 403.096 C 1031.429 416.180, 1046.492 431.394, 1061.601 438.130 C 1073.002 443.213, 1075.086 444, 1077.140 444 C 1078.279 444, 1081.774 444.664, 1084.907 445.476 C 1088.040 446.288, 1093.505 447.391, 1097.052 447.927 C 1104.457 449.046, 1116.863 451.470, 1125.315 453.448 C 1130.952 454.768, 1131.157 454.744, 1132.023 452.655 C 1132.515 451.470, 1134.758 446, 1137.008 440.500 C 1142.333 427.487, 1142.349 427.448, 1145.395 420.900 C 1146.828 417.821, 1148.015 414.896, 1148.034 414.400 C 1148.053 413.905, 1148.937 411.700, 1150 409.500 C 1151.063 407.300, 1151.947 404.712, 1151.966 403.750 C 1151.985 402.788, 1152.410 402, 1152.912 402 C 1153.414 402, 1154.128 400.200, 1154.500 398 C 1154.872 395.800, 1155.474 393.996, 1155.838 393.992 C 1156.565 393.984, 1159 389.139, 1159 387.702 C 1159 387.207, 1159.638 385.384, 1160.418 383.651 C 1162.890 378.159, 1165.901 370.985, 1166.052 370.229 C 1166.132 369.828, 1166.584 368.778, 1167.056 367.895 C 1167.912 366.296, 1156.966 363.011, 1150.722 362.994 C 1149.500 362.990, 1147.345 362.385, 1145.933 361.648 C 1144.522 360.912, 1142.228 360.023, 1140.835 359.674 C 1125.831 355.908, 1121.184 331.743, 1131.540 311.332 C 1132.888 308.675, 1133.994 305.931, 1133.996 305.236 C 1133.998 304.541, 1134.428 303.191, 1134.952 302.236 C 1135.475 301.281, 1136.649 298.700, 1137.560 296.500 C 1138.471 294.300, 1139.795 291.150, 1140.503 289.500 C 1141.210 287.850, 1142.262 285.375, 1142.840 284 C 1143.418 282.625, 1144.815 279.387, 1145.945 276.805 C 1147.075 274.223, 1148 271.855, 1148 271.544 C 1148 271.233, 1148.932 268.846, 1150.072 266.239 C 1151.211 263.633, 1152.733 260.150, 1153.454 258.500 C 1154.175 256.850, 1155.982 252.575, 1157.469 249 C 1158.957 245.425, 1160.810 241.082, 1161.587 239.349 C 1162.364 237.616, 1163 235.787, 1163 235.286 C 1163 234.785, 1164.125 232.042, 1165.500 229.192 C 1166.875 226.342, 1168 223.333, 1168 222.505 C 1168 221.677, 1168.414 221, 1168.921 221 C 1169.427 221, 1170.154 219.538, 1170.536 217.750 C 1170.918 215.963, 1171.574 214.050, 1171.993 213.500 C 1172.412 212.950, 1173.097 211.375, 1173.515 210 C 1174.196 207.762, 1176.300 202.800, 1180.575 193.349 C 1181.359 191.616, 1182 189.845, 1182 189.415 C 1182 188.984, 1182.854 186.802, 1183.898 184.566 C 1184.943 182.330, 1187.444 176.450, 1189.457 171.500 C 1191.470 166.550, 1193.738 161.150, 1194.498 159.500 C 1198.030 151.826, 1200 147.024, 1200 146.085 C 1200 145.522, 1200.846 143.554, 1201.880 141.713 C 1202.915 139.871, 1204.076 136.933, 1204.460 135.182 C 1204.844 133.432, 1205.534 132, 1205.992 132 C 1206.450 132, 1207.128 130.200, 1207.500 128 C 1207.872 125.800, 1208.537 124, 1208.979 124 C 1209.422 124, 1210.069 122.863, 1210.417 121.473 C 1210.766 120.084, 1212.086 116.596, 1213.351 113.723 C 1214.615 110.851, 1216.450 106.475, 1217.428 104 C 1218.405 101.525, 1219.595 98.742, 1220.071 97.815 C 1220.808 96.380, 1220.087 95.959, 1215.218 94.983 C 1209.534 93.844, 1198.168 91.557, 1180 87.896 C 1174.775 86.843, 1166.225 85.108, 1161 84.041 C 1152.112 82.225, 1141.864 80.225, 1130.769 78.139 C 1125.645 77.177, 1124.797 77.628, 1123.508 82 C 1123.102 83.375, 1121.975 86.075, 1121.003 88 C 1120.030 89.925, 1118.426 93.525, 1117.437 96 C 1116.448 98.475, 1114.101 103.875, 1112.222 108 C 1110.342 112.125, 1107.705 117.975, 1106.363 121 C 1105.020 124.025, 1103.264 127.774, 1102.460 129.331 C 1101.657 130.888, 1101 132.531, 1101 132.983 C 1101 133.434, 1099.200 137.609, 1097 142.260 C 1094.800 146.912, 1093 151.456, 1093 152.359 C 1093 153.261, 1092.602 154, 1092.117 154 C 1091.329 154, 1090.075 156.768, 1089.624 159.500 C 1089.533 160.050, 1088.456 162.613, 1087.230 165.195 C 1086.003 167.777, 1085 170.328, 1085 170.864 C 1085 171.400, 1084.355 173.112, 1083.567 174.669 C 1082.352 177.069, 1076.938 189.637, 1071.363 203 C 1070.560 204.925, 1069.475 207.281, 1068.952 208.236 C 1068.428 209.191, 1067.998 210.541, 1067.996 211.236 C 1067.994 211.931, 1066.902 214.647, 1065.570 217.272 C 1064.239 219.897, 1062.855 223.384, 1062.495 225.022 C 1062.135 226.660, 1061.427 228, 1060.921 228 C 1060.414 228, 1059.985 228.787, 1059.966 229.750 C 1059.947 230.713, 1059.063 233.300, 1058 235.500 C 1056.937 237.700, 1056.053 240.020, 1056.034 240.655 C 1056.015 241.291, 1055.121 243.541, 1054.046 245.655 C 1051.054 251.544, 1048 258.769, 1048 259.959 C 1048 260.546, 1047.568 261.809, 1047.040 262.764 C 1046.511 263.719, 1044.658 267.875, 1042.922 272 C 1041.186 276.125, 1038.918 281.388, 1037.882 283.695 C 1036.847 286.002, 1036 288.371, 1036 288.959 C 1036 289.546, 1035.570 290.809, 1035.044 291.764 C 1033.184 295.144, 1028 307.153, 1028 308.083 C 1028 308.602, 1027.572 309.809, 1027.048 310.764 C 1026.525 311.719, 1025.373 314.300, 1024.487 316.500 C 1023.602 318.700, 1022.230 321.774, 1021.439 323.331 C 1020.647 324.888, 1020 326.801, 1020 327.581 C 1020 328.361, 1019.550 329, 1019 329 C 1018.450 329, 1018 329.900, 1018 331 C 1018 332.100, 1017.550 333, 1017 333 C 1016.450 333, 1016 333.640, 1016 334.423 C 1016 335.206, 1014.875 337.184, 1013.500 338.818 C 1012.125 340.452, 1011 342.015, 1011 342.292 C 1011 342.871, 1006.663 348.056, 1002.978 351.882 C 999.980 354.993, 988.608 363, 987.186 363 C 986.637 363, 984.459 363.859, 982.345 364.908 C 976.780 367.670, 965.671 369.310, 956.483 368.725 C 946.226 368.072, 934.741 366.200, 934.041 365.067 C 933.741 364.581, 931.809 363.867, 929.748 363.480 C 927.686 363.094, 926 362.432, 926 362.010 C 926 361.588, 924.722 360.713, 923.160 360.066 C 908.520 354.002, 899.319 328.319, 906.280 312.947 C 907.139 311.051, 908.138 308.375, 908.500 307 C 909.225 304.248, 911.562 298.476, 913.048 295.764 C 913.572 294.809, 914 293.346, 914 292.514 C 914 291.681, 914.414 291, 914.921 291 C 915.427 291, 916.159 289.552, 916.548 287.783 C 916.936 286.013, 917.625 283.876, 918.079 283.033 C 918.532 282.190, 919.649 279.700, 920.560 277.500 C 921.471 275.300, 922.809 272.150, 923.534 270.500 C 924.259 268.850, 925.582 265.700, 926.474 263.500 C 927.367 261.300, 928.525 258.719, 929.048 257.764 C 929.572 256.809, 930 255.583, 930 255.041 C 930 254.498, 931.063 251.680, 932.363 248.777 C 933.663 245.875, 936.437 239.450, 938.528 234.500 C 940.619 229.550, 943.156 223.612, 944.165 221.305 C 945.174 218.998, 946 216.719, 946 216.242 C 946 215.765, 947.125 213.042, 948.500 210.192 C 949.875 207.342, 951 204.333, 951 203.505 C 951 202.677, 951.450 202, 952 202 C 952.550 202, 953 201.300, 953 200.445 C 953 199.590, 953.925 196.777, 955.055 194.195 C 956.185 191.613, 957.535 188.488, 958.055 187.250 C 958.575 186.012, 959.425 183.988, 959.945 182.750 C 960.465 181.512, 961.815 178.387, 962.945 175.805 C 964.075 173.223, 965 170.720, 965 170.243 C 965 169.766, 965.841 167.604, 966.868 165.438 C 968.910 161.135, 970.519 157.402, 973.956 149 C 975.194 145.975, 976.808 142.150, 977.543 140.500 C 978.279 138.850, 979.862 135.025, 981.061 132 C 982.260 128.975, 984.312 124.205, 985.620 121.400 C 986.929 118.596, 988 115.834, 988 115.265 C 988 114.695, 988.672 112.940, 989.494 111.364 C 990.315 109.789, 990.990 107.713, 990.994 106.750 C 990.997 105.787, 991.344 105, 991.765 105 C 992.679 105, 996.352 95.019, 995.684 94.351 C 995.154 93.821, 983.546 91.219, 967.500 88.035 C 961.450 86.834, 952.675 85.020, 948 84.004 C 943.325 82.988, 933.875 81.166, 927 79.956 C 920.125 78.747, 911.960 77.136, 908.856 76.378 C 901.434 74.566, 901.697 74.510, 900.102 78.250" stroke="none" fill="#045c04" fill-rule="evenodd"/><path d="M 458.500 73.024 C 450.250 73.505, 440.800 74.386, 437.500 74.982 C 434.200 75.578, 428.877 76.152, 425.671 76.256 C 422.465 76.361, 419.626 76.796, 419.362 77.223 C 419.098 77.651, 417.135 78, 415 78 C 412.865 78, 410.840 78.450, 410.500 79 C 410.160 79.550, 408.615 80, 407.067 80 C 405.518 80, 402.338 80.675, 400 81.500 C 397.662 82.325, 394.680 83, 393.374 83 C 392.068 83, 391 83.347, 391 83.772 C 391 84.197, 387.962 85.120, 384.250 85.824 C 380.538 86.527, 377.072 87.530, 376.550 88.052 C 376.027 88.573, 374.367 89, 372.859 89 C 371.351 89, 369.840 89.450, 369.500 90 C 369.160 90.550, 367.784 91, 366.441 91 C 365.098 91, 364 91.378, 364 91.840 C 364 92.302, 361.479 93.285, 358.398 94.024 C 355.317 94.764, 352.569 95.961, 352.291 96.684 C 352.013 97.408, 350.703 98, 349.379 98 C 346.929 98, 343.667 99.499, 341.217 101.750 C 340.469 102.438, 339.053 103, 338.069 103 C 337.086 103, 333.631 104.344, 330.391 105.987 C 327.151 107.630, 323.938 108.980, 323.250 108.987 C 322.563 108.994, 321.996 109.338, 321.992 109.750 C 321.984 110.515, 317.252 113, 315.803 113 C 315.364 113, 312.866 114.501, 310.252 116.336 C 307.639 118.170, 304.038 120.250, 302.250 120.957 C 300.462 121.664, 299 122.638, 299 123.121 C 299 123.605, 298.086 124, 296.969 124 C 295.851 124, 294.678 124.675, 294.362 125.500 C 294.045 126.325, 293.159 127, 292.393 127 C 291.627 127, 291 127.379, 291 127.843 C 291 128.306, 289.001 129.714, 286.558 130.970 C 284.115 132.227, 281.879 133.872, 281.590 134.627 C 281.300 135.382, 280.546 136, 279.914 136 C 279.282 136, 275.555 138.393, 271.632 141.317 C 267.710 144.241, 263.488 147.321, 262.251 148.160 C 260.327 149.466, 249.509 158.859, 245.448 162.750 C 244.730 163.438, 243.841 164, 243.471 164 C 242.510 164, 218 188.763, 218 189.734 C 218 190.178, 216.870 191.658, 215.490 193.021 C 210.458 197.990, 203 206.546, 203 207.351 C 203 208.293, 194.534 219.222, 192.113 221.405 C 190.951 222.453, 190 223.911, 190 224.647 C 190 225.382, 189.100 226.545, 188 227.232 C 186.900 227.919, 186 229.003, 186 229.640 C 186 230.277, 184.425 233.139, 182.500 236 C 180.575 238.861, 179 241.831, 179 242.600 C 179 243.370, 178.622 244, 178.159 244 C 177.696 244, 176.100 246.137, 174.612 248.750 C 173.124 251.363, 171.060 254.850, 170.026 256.500 C 168.992 258.150, 168.103 260.175, 168.051 261 C 167.998 261.825, 167.076 263.625, 166 265 C 164.924 266.375, 164.034 268.106, 164.022 268.846 C 164.010 269.586, 163.064 271.506, 161.919 273.113 C 160.775 274.721, 159.048 278.279, 158.083 281.021 C 157.117 283.763, 156.029 286.305, 155.664 286.670 C 155.299 287.035, 155 287.996, 155 288.806 C 155 289.617, 154.386 290.779, 153.636 291.390 C 152.885 292, 150.781 297.225, 148.961 303 C 147.140 308.775, 145.279 313.927, 144.825 314.450 C 144.371 314.972, 144 316.660, 144 318.200 C 144 319.740, 143.600 321, 143.111 321 C 142.622 321, 141.451 324.038, 140.509 327.750 C 139.567 331.462, 138.455 335.400, 138.037 336.500 C 135.904 342.116, 135 346.021, 135 349.621 C 135 351.809, 134.552 354.048, 134.004 354.596 C 132.742 355.858, 132.003 360.387, 131.411 370.500 C 131.153 374.900, 130.179 380.300, 129.247 382.500 C 127.738 386.060, 127.513 392.511, 127.201 441.110 L 126.851 495.719 119.246 496.362 C 115.064 496.716, 110.613 497.679, 109.356 498.502 C 108.099 499.326, 105.956 500, 104.594 500 C 103.232 500, 101.840 500.450, 101.500 501 C 101.160 501.550, 100.254 502, 99.485 502 C 98.299 502, 92.968 505.067, 89.500 507.744 C 88.950 508.168, 87.375 509.240, 86 510.125 C 82.349 512.476, 71 523.729, 71 524.999 C 71 525.595, 70.046 527.077, 68.880 528.292 C 65.397 531.918, 63.008 536.331, 63.004 539.143 C 63.002 540.597, 62.325 542.045, 61.500 542.362 C 60.675 542.678, 60 543.825, 60 544.910 C 60 545.994, 59.550 547.160, 59 547.500 C 57.796 548.244, 57.578 1159, 58.782 1159 C 59.212 1159, 60.169 1161.138, 60.908 1163.750 C 62.259 1168.520, 68.848 1179.975, 70.250 1179.991 C 70.662 1179.996, 71 1180.647, 71 1181.439 C 71 1182.712, 82.477 1195, 83.666 1195 C 83.923 1195, 85.608 1196.125, 87.411 1197.500 C 89.214 1198.875, 91.171 1200, 91.761 1200 C 92.351 1200, 92.983 1200.337, 93.167 1200.750 C 93.350 1201.162, 95.975 1202.850, 99 1204.500 L 104.500 1207.500 325.258 1207.763 L 546.016 1208.026 542.625 1203.263 C 531.056 1187.010, 527.618 1168.302, 532.601 1148.714 C 534.389 1141.688, 534.370 1141.653, 527.231 1138.997 C 524.079 1137.824, 519.025 1135.784, 516 1134.465 C 512.975 1133.146, 503.300 1129.098, 494.500 1125.470 C 471.838 1116.127, 464.623 1110.841, 458.578 1099.150 C 454.548 1091.357, 452.928 1076.095, 455.467 1069.847 C 456.082 1068.336, 453.492 1068.165, 425.152 1067.847 C 408.109 1067.656, 393.842 1067.176, 393.446 1066.780 C 392.468 1065.801, 391.983 1059, 392.891 1059 C 393.290 1059, 393.525 1057.198, 393.412 1054.995 C 393.300 1052.792, 393.596 1050.750, 394.071 1050.456 C 394.546 1050.163, 394.654 1048.522, 394.312 1046.811 C 393.853 1044.514, 394.139 1043.372, 395.405 1042.446 C 396.491 1041.652, 396.733 1040.953, 396.064 1040.539 C 395.351 1040.099, 395.495 1038.944, 396.504 1036.993 C 397.327 1035.401, 398 1032.727, 398 1031.050 C 398 1029.372, 398.403 1028, 398.895 1028 C 399.401 1028, 399.447 1026.480, 399 1024.500 C 398.378 1021.743, 398.519 1021, 399.664 1021 C 400.577 1021, 400.827 1020.535, 400.337 1019.750 C 398.697 1017.125, 399.973 1011, 402.161 1011 C 402.622 1011, 403 1009.875, 403 1008.500 C 403 1007.125, 402.541 1006, 401.981 1006 C 400.945 1006, 401.388 1002.684, 403.049 998 C 403.537 996.625, 404.145 993.700, 404.400 991.500 C 404.655 989.300, 405.600 984.575, 406.499 981 C 407.398 977.425, 408.292 972.250, 408.487 969.500 C 408.970 962.664, 409.898 952.500, 410.038 952.500 C 410.101 952.500, 410.309 951.677, 410.499 950.672 C 410.690 949.666, 411.172 948.091, 411.569 947.172 C 411.967 946.252, 412.416 943.496, 412.566 941.046 C 412.733 938.302, 413.476 936.125, 414.498 935.378 C 415.767 934.450, 415.918 933.714, 415.137 932.256 C 414.412 930.901, 414.510 929.210, 415.474 926.424 C 416.234 924.228, 416.429 922.353, 415.916 922.167 C 414.403 921.616, 414.882 919.165, 416.703 918.146 C 418.139 917.343, 418.198 916.943, 417.080 915.597 C 416.351 914.719, 416.148 913.998, 416.628 913.995 C 417.107 913.992, 417.608 912.109, 417.741 909.809 C 417.873 907.510, 418.548 905.263, 419.241 904.815 C 420.225 904.178, 420.173 903.765, 419 902.924 C 417.865 902.109, 417.805 901.724, 418.756 901.338 C 419.447 901.058, 419.781 900.455, 419.499 899.999 C 419.217 899.542, 419.473 897.893, 420.069 896.334 C 420.665 894.775, 421.181 891.025, 421.217 888 C 421.280 882.549, 422.330 879.130, 424.343 877.822 C 425.054 877.359, 424.990 876.274, 424.142 874.412 C 423.191 872.326, 423.176 871.509, 424.077 870.952 C 424.726 870.552, 424.953 869.733, 424.582 869.132 C 424.211 868.532, 424.417 867.089, 425.040 865.925 C 425.986 864.157, 425.830 863.569, 424.086 862.348 C 422.939 861.544, 422 860.442, 422 859.898 C 422 859.354, 420.875 857.784, 419.500 856.409 C 418.125 855.034, 417 854.216, 417 854.590 C 417 855.583, 411.035 848.659, 411.016 847.644 C 411.007 847.173, 409.875 845.903, 408.500 844.821 C 407.125 843.740, 406 842.407, 406 841.861 C 406 841.314, 404.822 839.322, 403.381 837.433 C 401.612 835.113, 401.206 833.990, 402.131 833.970 C 403.055 833.949, 402.931 833.608, 401.750 832.920 C 400.787 832.359, 400 831.530, 400 831.077 C 400 830.625, 399.012 828.060, 397.805 825.377 C 396.598 822.695, 395.464 819.635, 395.285 818.578 C 395.107 817.522, 394.463 816.058, 393.856 815.326 C 393.248 814.594, 393.021 812.646, 393.350 810.998 C 393.689 809.307, 393.525 808, 392.975 808 C 392.439 808, 392 807.100, 392 806 C 392 804.900, 392.450 804, 393 804 C 394.656 804, 394.124 799.262, 392.394 798.598 C 391.231 798.151, 390.967 797.269, 391.437 795.395 C 391.797 793.961, 391.587 792.208, 390.967 791.460 C 390.107 790.424, 390.329 789.812, 391.924 788.815 C 394.019 787.507, 394.853 783, 393 783 C 392.450 783, 392 782.100, 392 781 C 392 779.900, 392.371 779, 392.825 779 C 393.279 779, 393.692 777.538, 393.744 775.750 C 393.832 772.697, 394.579 767.806, 395.042 767.250 C 395.156 767.112, 395.345 766.663, 395.461 766.250 C 396.118 763.921, 401.477 753.402, 402.278 752.871 C 402.825 752.508, 402.707 752.069, 401.999 751.833 C 401.185 751.562, 401.651 750.379, 403.386 748.318 C 404.824 746.609, 406 744.873, 406 744.459 C 406 739.568, 435.355 713, 440.758 713 C 441.307 713, 442.315 712.325, 443 711.500 C 443.685 710.675, 445.090 710, 446.122 710 C 447.155 710, 448 709.550, 448 709 C 448 708.450, 448.810 708, 449.800 708 C 450.790 708, 452.028 707.626, 452.550 707.169 C 453.929 705.962, 461.286 704, 464.432 704 C 465.917 704, 468.112 703.475, 469.310 702.834 C 472.674 701.034, 491.781 700.972, 496 702.748 C 497.925 703.559, 501.592 704.341, 504.149 704.487 C 506.706 704.633, 510.263 705.484, 512.053 706.376 C 513.843 707.269, 515.858 708, 516.531 708 C 517.204 708, 518.324 708.686, 519.020 709.524 C 519.716 710.362, 520.505 710.828, 520.774 710.559 C 521.043 710.291, 522.204 710.730, 523.354 711.535 C 524.504 712.341, 526.016 713, 526.714 713 C 528.386 713, 537.569 720.062, 537.262 721.112 C 537.131 721.561, 537.690 721.673, 538.504 721.360 C 539.342 721.039, 540.250 721.488, 540.599 722.396 C 540.937 723.278, 541.658 724, 542.202 724 C 543.356 724, 552 732.052, 552 733.127 C 552 733.529, 553.565 735.517, 555.477 737.544 C 557.389 739.572, 559.505 742.754, 560.178 744.616 C 560.851 746.477, 561.728 748, 562.128 748 C 563.166 748, 566.064 754.087, 565.478 755.036 C 565.208 755.472, 565.465 755.988, 566.048 756.183 C 566.632 756.377, 567.275 757.428, 567.478 758.518 C 567.681 759.608, 567.938 760.612, 568.048 760.750 C 568.159 760.888, 568.327 761.337, 568.420 761.750 C 568.514 762.163, 569.609 764.446, 570.854 766.825 C 572.098 769.203, 572.928 771.678, 572.697 772.325 C 572.466 772.971, 573.115 775.170, 574.139 777.210 C 576.168 781.255, 576.582 785, 575 785 C 573.549 785, 573.771 789.740, 575.250 790.341 C 576.192 790.723, 576.132 791.103, 575.008 791.882 C 573.869 792.672, 573.793 793.193, 574.687 794.087 C 575.580 794.980, 575.580 795.700, 574.688 797.128 C 573.783 798.577, 573.813 799.471, 574.820 801.084 C 576.268 803.402, 575.605 808.147, 573.354 811.583 C 572.592 812.745, 572.066 814.551, 572.183 815.598 C 572.371 817.274, 569.699 824.242, 566.954 829.236 C 566.429 830.191, 566 831.654, 566 832.486 C 566 833.319, 565.550 834, 565 834 C 564.450 834, 564 834.482, 564 835.071 C 564 835.661, 563.325 836.818, 562.500 837.643 C 559.343 840.800, 560.622 841.918, 565.659 840.402 C 576.147 837.246, 589.868 839.071, 604.590 845.582 C 607.787 846.996, 616.275 850.556, 623.451 853.492 C 630.628 856.429, 638.075 859.505, 640 860.328 L 643.500 861.823 643.203 855.662 C 642.206 834.989, 661.881 796.395, 677.233 788.910 C 681.836 786.666, 681.373 787.479, 689.993 766.500 C 692.254 761, 695.412 753.350, 697.013 749.500 C 698.614 745.650, 704.458 731.475, 710 718 C 715.543 704.525, 721.611 689.900, 723.486 685.500 C 726.988 677.280, 742.322 640.347, 752.548 615.500 C 757.965 602.340, 760.321 596.646, 769.515 574.500 C 774.969 561.360, 777.382 555.514, 781.276 546 C 783.190 541.325, 786.352 533.675, 788.303 529 C 790.254 524.325, 794.547 513.975, 797.842 506 C 801.138 498.025, 806.728 484.509, 810.265 475.965 L 816.696 460.430 811.671 457.465 C 758.965 426.361, 750.145 348.565, 789.418 261.183 C 794.020 250.943, 794.360 247.576, 791 245.500 C 790.382 245.118, 789.455 243.837, 788.941 242.653 C 787.740 239.891, 785.955 237.128, 783.750 234.616 C 782.788 233.520, 782 231.871, 782 230.952 C 782 230.032, 780.875 228.435, 779.500 227.403 C 778.125 226.370, 777 225.169, 777 224.733 C 777 223.970, 771.834 216.866, 766.549 210.363 C 765.147 208.637, 764 207.013, 764 206.753 C 764 206.493, 762.425 204.610, 760.500 202.569 C 758.575 200.528, 757 198.215, 757 197.429 C 757 196.643, 756.500 196, 755.890 196 C 754.620 196, 746.508 188.025, 745.889 186.168 C 745.336 184.507, 727.908 167, 726.809 167 C 726.329 167, 725.678 166.325, 725.362 165.500 C 725.045 164.675, 724.351 164, 723.819 164 C 723.288 164, 720.662 161.863, 717.984 159.250 C 711.716 153.136, 704.425 146.816, 702.226 145.591 C 701.277 145.062, 699.905 144.038, 699.179 143.315 C 698.452 142.592, 697.552 141.999, 697.179 141.999 C 696.805 141.998, 695.193 140.873, 693.594 139.499 C 691.996 138.124, 690.324 137, 689.879 137 C 689.433 137, 687.688 135.650, 686 134 C 684.312 132.350, 682.309 131, 681.549 131 C 680.789 131, 680.017 130.646, 679.833 130.213 C 679.650 129.780, 677.250 128.131, 674.500 126.549 C 671.750 124.967, 669.275 123.389, 669 123.042 C 667.994 121.772, 660.844 118, 659.443 118 C 658.649 118, 658 117.546, 658 116.992 C 658 116.437, 654.513 114.300, 650.250 112.242 C 645.987 110.184, 642.350 108.162, 642.167 107.750 C 641.983 107.338, 641.399 107, 640.868 107 C 640.338 107, 638.041 106.100, 635.764 105 C 633.487 103.900, 630.584 103, 629.312 103 C 628.040 103, 627 102.583, 627 102.073 C 627 100.751, 621.134 98, 618.315 98 C 617.007 98, 615.683 97.337, 615.372 96.527 C 615.061 95.717, 613.163 94.767, 611.153 94.415 C 609.144 94.063, 606.503 93.151, 605.285 92.388 C 604.067 91.624, 602.181 91, 601.094 91 C 600.007 91, 598.840 90.550, 598.500 90 C 598.160 89.450, 596.585 89, 595 89 C 593.415 89, 591.887 88.626, 591.604 88.169 C 591.322 87.712, 587.808 86.730, 583.795 85.986 C 579.783 85.243, 576.228 84.235, 575.897 83.745 C 575.565 83.256, 574.215 82.677, 572.897 82.457 C 571.578 82.238, 567.350 81.342, 563.500 80.468 C 550.654 77.548, 547.537 76.966, 542 76.455 C 538.975 76.175, 531.100 75.262, 524.500 74.426 C 509.554 72.533, 478.302 71.869, 458.500 73.024 M 467.107 222.184 C 458.091 222.629, 450.186 223.431, 449.541 223.966 C 448.896 224.501, 445.810 225.240, 442.684 225.607 C 439.558 225.975, 437 226.663, 437 227.138 C 437 227.612, 435.452 228, 433.559 228 C 431.666 228, 429.871 228.399, 429.570 228.887 C 429.269 229.374, 427.387 230.080, 425.388 230.455 C 423.389 230.830, 421.022 231.501, 420.127 231.946 C 417.521 233.241, 411.505 235, 409.679 235 C 408.756 235, 408 235.450, 408 236 C 408 236.550, 406.875 237, 405.500 237 C 404.125 237, 402.996 237.338, 402.992 237.750 C 402.981 238.868, 397.935 241, 395.301 241 C 394.035 241, 393 241.420, 393 241.933 C 393 242.446, 391.988 243.181, 390.750 243.567 C 389.512 243.954, 388.275 244.546, 388 244.885 C 387.491 245.511, 386.199 246.276, 378.079 250.758 C 375.560 252.149, 372.306 254.122, 370.846 255.143 C 369.386 256.164, 367.899 257, 367.542 257 C 366.639 257, 353.917 267.263, 351.595 269.865 C 350.547 271.039, 349.186 272, 348.569 272 C 347.009 272, 327 291.946, 327 293.501 C 327 294.198, 325.298 296.305, 323.218 298.184 C 321.138 300.063, 318.101 303.715, 316.468 306.299 C 314.836 308.882, 313.211 310.997, 312.858 310.998 C 312.506 310.999, 311.934 312.125, 311.589 313.500 C 311.244 314.875, 310.520 316, 309.981 316 C 309.441 316, 309 316.527, 309 317.171 C 309 317.815, 308.252 319.169, 307.339 320.178 C 305.385 322.337, 304.027 324.657, 300.622 331.656 C 299.242 334.492, 297.638 337.106, 297.057 337.465 C 296.475 337.824, 296 339.249, 296 340.630 C 296 342.012, 295.343 343.800, 294.539 344.604 C 293.736 345.407, 292.779 347.737, 292.413 349.782 C 292.046 351.827, 291.068 354.278, 290.238 355.228 C 289.408 356.179, 288.646 357.754, 288.544 358.728 C 288.353 360.553, 287.738 362.315, 285.479 367.500 C 284.761 369.150, 283.878 372.750, 283.518 375.500 C 283.158 378.250, 282.485 381.400, 282.022 382.500 C 280.198 386.839, 279.816 388.777, 279.363 396 C 279.105 400.125, 278.242 404.497, 277.447 405.715 C 276.240 407.562, 276 415.233, 276 451.965 L 276 496 484.072 496 L 692.144 496 691.906 454.250 C 691.770 430.504, 691.246 411.206, 690.690 409.500 C 690.153 407.850, 689.647 403.832, 689.567 400.570 C 689.477 396.934, 688.953 394.484, 688.211 394.237 C 687.481 393.994, 687 391.873, 687 388.903 C 687 386.191, 686.605 383.191, 686.123 382.236 C 685.016 380.046, 683.372 374.545, 682.467 370 C 682.083 368.075, 681.441 366.050, 681.040 365.500 C 680.639 364.950, 679.729 362.351, 679.018 359.724 C 678.307 357.098, 677.337 354.709, 676.863 354.415 C 676.388 354.122, 676 353.078, 676 352.095 C 676 350.092, 673.329 344.321, 672.031 343.519 C 671.567 343.232, 671.402 342.180, 671.663 341.179 C 671.925 340.179, 671.433 338.774, 670.570 338.058 C 669.706 337.341, 669 335.980, 669 335.033 C 669 334.085, 668.100 332.495, 667 331.500 C 665.900 330.505, 665 329.240, 665 328.689 C 665 328.139, 663.952 326.296, 662.671 324.594 C 661.389 322.892, 659.260 319.313, 657.938 316.640 C 656.617 313.967, 654.515 310.977, 653.268 309.996 C 652.020 309.015, 651 307.489, 651 306.606 C 651 305.723, 650.325 305, 649.500 305 C 648.675 305, 647.998 304.438, 647.995 303.750 C 647.993 303.063, 646.418 300.787, 644.495 298.694 C 642.573 296.601, 641 294.525, 641 294.081 C 641 293.014, 620.094 272, 619.032 272 C 618.580 272, 616.025 269.927, 613.355 267.393 C 608.291 262.587, 600.740 257, 599.309 257 C 598.852 257, 596.683 255.434, 594.489 253.519 C 592.295 251.605, 589.894 250.030, 589.154 250.019 C 588.414 250.009, 586.528 249.088, 584.962 247.973 C 583.397 246.858, 580.627 245.277, 578.808 244.458 C 576.989 243.640, 574.825 242.585, 574 242.114 C 570.092 239.885, 562.744 237, 560.973 237 C 559.888 237, 559 236.550, 559 236 C 559 235.450, 558.319 235, 557.486 235 C 556.654 235, 555.191 234.587, 554.236 234.083 C 553.281 233.579, 549.800 232.419, 546.500 231.507 C 543.200 230.594, 539.600 229.465, 538.500 228.999 C 536.304 228.068, 533.539 227.421, 524.500 225.723 C 521.200 225.104, 518.255 224.248, 517.956 223.823 C 517.657 223.397, 510.907 222.791, 502.956 222.476 C 495.005 222.162, 487.375 221.786, 486 221.640 C 484.625 221.495, 476.123 221.740, 467.107 222.184" stroke="none" fill="#fb3434" fill-rule="evenodd"/></svg>