<?xml version="1.0" encoding="UTF-8"?>
<!DOCTYPE svg PUBLIC "-//W3C//DTD SVG 1.1//EN" "http://www.w3.org/Graphics/SVG/1.1/DTD/svg11.dtd">
<svg xmlns="http://www.w3.org/2000/svg" version="1.1" width="1500px" height="1500px" style="shape-rendering:geometricPrecision; text-rendering:geometricPrecision; image-rendering:optimizeQuality; fill-rule:evenodd; clip-rule:evenodd" xmlns:xlink="http://www.w3.org/1999/xlink">
<g><path style="opacity:1" fill="#fefefe" d="M 484.5,137.5 C 609.529,122.465 718.862,156.298 812.5,239C 824.696,250.862 836.53,263.029 848,275.5C 857.513,289.191 867.513,302.524 878,315.5C 882.999,301.172 889.332,287.505 897,274.5C 916.199,255.462 938.366,251.295 963.5,262C 1003.53,264.783 1043.2,262.117 1082.5,254C 1101.07,253.512 1119.41,255.512 1137.5,260C 1164.95,271.059 1175.45,291.225 1169,320.5C 1139.06,394.328 1108.72,467.995 1078,541.5C 1076.69,544.089 1076.02,546.756 1076,549.5C 1096.65,531.862 1113.98,511.529 1128,488.5C 1144.89,460.724 1160.22,432.057 1174,402.5C 1193.58,356.397 1213.91,310.73 1235,265.5C 1247.69,251.269 1263.52,245.769 1282.5,249C 1320.88,255.422 1359.21,262.089 1397.5,269C 1424.33,279.492 1434.83,298.992 1429,327.5C 1398.93,401.207 1368.76,474.874 1338.5,548.5C 1354.71,548.617 1368.21,554.617 1379,566.5C 1391.67,587.167 1404.33,607.833 1417,628.5C 1426.12,651.221 1421.62,670.721 1403.5,687C 1359.16,718.67 1309.66,735.17 1255,736.5C 1217.96,736.542 1184.46,725.875 1154.5,704.5C 1148.08,708.126 1141.91,712.126 1136,716.5C 1057.8,904.752 979.805,1093.09 902,1281.5C 884.149,1315.35 856.315,1335.19 818.5,1341C 802.016,1342.67 785.849,1341.17 770,1336.5C 765.936,1341.57 761.436,1346.4 756.5,1351C 750.198,1355.55 743.198,1358.55 735.5,1360C 542.833,1360.67 350.167,1360.67 157.5,1360C 146.481,1358.33 136.148,1354.66 126.5,1349C 97.3212,1331.48 78.1545,1306.32 69,1273.5C 68.0054,1063.47 68.3387,853.466 70,643.5C 81.3313,608.67 103.498,583.336 136.5,567.5C 129.52,435.851 173.853,325.351 269.5,236C 311.972,199.086 359.972,171.419 413.5,153C 436.85,145.566 460.516,140.4 484.5,137.5 Z M 523.5,374.5 C 576.218,372.117 621.051,389.45 658,426.5C 666.492,437.483 674.492,448.816 682,460.5C 696.454,491.465 703.287,524.132 702.5,558.5C 593.833,558.5 485.167,558.5 376.5,558.5C 374.192,514.601 385.358,474.601 410,438.5C 416.167,431.667 422.333,424.833 428.5,418C 443.891,404.298 461.225,393.632 480.5,386C 494.704,381.201 509.037,377.367 523.5,374.5 Z M 535.5,854.5 C 553.705,855.576 567.872,863.576 578,878.5C 587.112,894.921 586.446,910.921 576,926.5C 569.293,933.538 562.96,940.872 557,948.5C 552.803,956.653 550.969,965.32 551.5,974.5C 551.547,980.54 552.047,986.54 553,992.5C 554.816,1005.58 557.149,1018.58 560,1031.5C 564.151,1043.31 571.318,1052.81 581.5,1060C 574.762,1077.53 572.262,1095.7 574,1114.5C 574.662,1119.82 575.829,1124.98 577.5,1130C 552.502,1130.5 527.502,1130.67 502.5,1130.5C 503.094,1124.18 503.594,1117.85 504,1111.5C 507.738,1090.78 511.738,1070.11 516,1049.5C 517.969,1030.33 520.969,1011.33 525,992.5C 526.67,981.141 526.67,969.808 525,958.5C 523.667,955.167 522.333,951.833 521,948.5C 514.752,939.581 507.752,931.248 500,923.5C 498.772,919.941 497.106,916.608 495,913.5C 490.659,881.373 504.159,861.706 535.5,854.5 Z"/></g>
<g><path style="opacity:1" fill="#fe3232" d="M 491.5,182.5 C 523.502,182.333 555.502,182.5 587.5,183C 600.606,183.729 613.94,186.229 627.5,190.5C 656.991,197.61 685.324,208.444 712.5,223C 732.611,235.095 751.944,248.428 770.5,263C 784.49,275.323 797.49,288.657 809.5,303C 810.448,303.483 811.448,303.649 812.5,303.5C 812.608,305.783 813.441,307.783 815,309.5C 850.065,350.795 873.898,397.962 886.5,451C 874.805,479.557 862.971,508.057 851,536.5C 838.207,572.892 837.207,609.559 848,646.5C 859.356,674.683 877.523,697.349 902.5,714.5C 887.133,749.239 872.3,784.239 858,819.5C 857.667,819.833 857.333,820.167 857,820.5C 804.032,795.778 757.699,804.778 718,847.5C 697.549,874.888 690.215,905.555 696,939.5C 699.98,955.455 706.646,970.121 716,983.5C 723.702,990.678 730.535,998.011 736.5,1005.5C 728.631,1002.82 720.965,999.655 713.5,996C 678.418,986.071 645.751,991.071 615.5,1011C 611.701,1013.8 608.201,1016.96 605,1020.5C 604.365,1018.38 603.531,1016.38 602.5,1014.5C 604.808,1011.86 604.641,1009.19 602,1006.5C 600.338,1002.55 600.004,998.554 601,994.5C 600.573,990.958 599.407,987.792 597.5,985C 600.194,982.185 599.861,979.685 596.5,977.5C 597.074,974.823 597.741,972.157 598.5,969.5C 604.579,962.98 610.412,956.313 616,949.5C 620.353,941.298 624.52,932.965 628.5,924.5C 628.069,923.707 627.735,922.873 627.5,922C 629.611,919.006 630.944,915.673 631.5,912C 631.067,910.072 630.4,908.239 629.5,906.5C 629.529,904.971 630.196,903.804 631.5,903C 628.956,901.437 628.956,899.937 631.5,898.5C 630.511,897.532 629.844,896.365 629.5,895C 630.955,892.637 631.455,890.137 631,887.5C 626.527,876.487 622.527,866.154 619,856.5C 604.955,833.695 585.289,818.695 560,811.5C 558.348,811.86 556.682,812.193 555,812.5C 552.866,810.516 550.366,809.182 547.5,808.5C 507.792,808.149 477.458,824.982 456.5,859C 458.991,859.626 458.991,860.459 456.5,861.5C 454.386,866.884 452.053,871.717 449.5,876C 448.823,879.018 448.823,882.185 449.5,885.5C 448.585,886.328 447.919,887.328 447.5,888.5C 448.28,889.949 448.946,891.449 449.5,893C 448.756,894.855 447.756,896.521 446.5,898C 447.833,900 447.833,902 446.5,904C 447.756,905.479 448.756,907.145 449.5,909C 448.946,910.551 448.28,912.051 447.5,913.5C 447.919,914.672 448.585,915.672 449.5,916.5C 448.038,920.359 448.705,923.859 451.5,927C 451.167,927.333 450.833,927.667 450.5,928C 452.718,931.605 454.552,935.438 456,939.5C 458.734,940.362 458.901,941.195 456.5,942C 459.452,945.113 461.785,948.613 463.5,952.5C 464.325,953.386 465.325,953.719 466.5,953.5C 467.641,956.833 469.474,959.833 472,962.5C 472.333,962.167 472.667,961.833 473,961.5C 475.788,964.943 478.621,968.277 481.5,971.5C 479.849,973.402 479.516,975.402 480.5,977.5C 479.833,978.167 479.167,978.833 478.5,979.5C 479.304,980.941 479.971,982.441 480.5,984C 476.396,988.217 475.396,992.884 477.5,998C 476.58,1000.83 475.58,1003.67 474.5,1006.5C 475.718,1007.8 475.385,1008.8 473.5,1009.5C 474.167,1010.17 474.833,1010.83 475.5,1011.5C 473.215,1014.43 472.549,1017.59 473.5,1021C 472.833,1021.33 472.167,1021.67 471.5,1022C 472.357,1022.69 473.023,1023.52 473.5,1024.5C 470.25,1026.03 469.916,1027.87 472.5,1030C 471.73,1032.57 470.73,1035.07 469.5,1037.5C 471.979,1039.97 471.813,1041.97 469,1043.5C 468.727,1045.1 468.227,1046.6 467.5,1048C 467.501,1049.4 467.835,1050.9 468.5,1052.5C 466.804,1055.55 465.471,1058.38 464.5,1061C 464.375,1067.44 464.375,1073.6 464.5,1079.5C 460.822,1090.43 458.156,1101.43 456.5,1112.5C 457.489,1113.47 458.156,1114.63 458.5,1116C 457.046,1118.41 455.712,1120.91 454.5,1123.5C 455.641,1124.43 455.641,1125.26 454.5,1126C 456.308,1127.49 456.308,1129.33 454.5,1131.5C 454.57,1132.77 454.903,1133.94 455.5,1135C 453.933,1138.95 452.266,1142.95 450.5,1147C 453.332,1148.91 452.999,1149.74 449.5,1149.5C 449.292,1151.92 449.626,1154.25 450.5,1156.5C 449.833,1157.5 449.167,1158.5 448.5,1159.5C 448.727,1161.67 449.06,1163.84 449.5,1166C 448.692,1166.31 448.025,1166.81 447.5,1167.5C 447.833,1169.5 448.167,1171.5 448.5,1173.5C 451.107,1174.32 453.774,1174.82 456.5,1175C 504.167,1175.33 551.833,1175.67 599.5,1176C 606.761,1183.62 614.761,1190.29 623.5,1196C 646.908,1205.74 670.241,1215.58 693.5,1225.5C 692.175,1255.45 700.675,1282.12 719,1305.5C 722.167,1308.67 725.333,1311.83 728.5,1315C 540.5,1315.67 352.5,1315.67 164.5,1315C 143.506,1308.89 128.006,1296.06 118,1276.5C 117.116,1273.07 115.949,1269.73 114.5,1266.5C 113.333,1062.83 113.167,859.167 114,655.5C 123.258,630.245 140.758,613.411 166.5,605C 171.78,603.905 177.113,603.405 182.5,603.5C 182.333,569.832 182.5,536.165 183,502.5C 183.9,494.161 185.4,485.994 187.5,478C 186.758,473.891 186.758,469.891 187.5,466C 190.004,461.585 191.171,456.752 191,451.5C 211.714,373.211 253.214,308.377 315.5,257C 327.247,248.556 338.914,240.223 350.5,232C 362.699,224.473 375.366,217.806 388.5,212C 400.969,207.181 413.302,202.181 425.5,197C 442.599,192.493 459.599,187.993 476.5,183.5C 477.716,184.002 478.883,184.335 480,184.5C 483.935,183.862 487.769,183.196 491.5,182.5 Z M 523.5,374.5 C 509.037,377.367 494.704,381.201 480.5,386C 461.225,393.632 443.891,404.298 428.5,418C 422.333,424.833 416.167,431.667 410,438.5C 385.358,474.601 374.192,514.601 376.5,558.5C 485.167,558.5 593.833,558.5 702.5,558.5C 703.287,524.132 696.454,491.465 682,460.5C 674.492,448.816 666.492,437.483 658,426.5C 621.051,389.45 576.218,372.117 523.5,374.5 Z"/></g>
<g><path style="opacity:1" fill="#005f00" d="M 1270.5,293.5 C 1308.78,300.157 1347.11,306.491 1385.5,312.5C 1347.56,406.239 1310.22,498.073 1273.5,588C 1271.11,603.943 1277.94,612.443 1294,613.5C 1311.77,610.692 1328.1,604.358 1343,594.5C 1353.17,612.168 1363.83,629.501 1375,646.5C 1375.98,647.759 1376.32,649.092 1376,650.5C 1332.09,681.63 1284.09,694.63 1232,689.5C 1218.14,686.53 1204.98,681.696 1192.5,675C 1179.67,667.004 1169.34,656.504 1161.5,643.5C 1142.47,658.535 1122.13,671.535 1100.5,682.5C 1020.67,875.5 940.833,1068.5 861,1261.5C 844.501,1290.99 819.668,1301.82 786.5,1294C 778.497,1291.5 771.164,1287.66 764.5,1282.5C 758.948,1277.05 754.114,1271.05 750,1264.5C 742.449,1248.02 741.116,1231.35 746,1214.5C 746.837,1212.16 748.171,1210.16 750,1208.5C 751.639,1205.26 752.639,1201.92 753,1198.5C 749.626,1195.59 745.793,1193.42 741.5,1192C 710.408,1179.53 679.408,1166.86 648.5,1154C 625.092,1138.37 615.592,1116.87 620,1089.5C 622.582,1074.6 629.749,1062.43 641.5,1053C 646.682,1050.11 651.682,1046.94 656.5,1043.5C 657.167,1043.83 657.833,1044.17 658.5,1044.5C 661.167,1043.17 663.833,1041.83 666.5,1040.5C 667.167,1040.83 667.833,1041.17 668.5,1041.5C 671.167,1040.83 673.833,1040.17 676.5,1039.5C 684.21,1039.59 691.877,1040.76 699.5,1043C 732.085,1056.86 764.752,1070.53 797.5,1084C 798.944,1084.78 800.277,1084.61 801.5,1083.5C 812.765,1055.98 824.265,1028.65 836,1001.5C 836.682,997.82 835.182,995.32 831.5,994C 812.833,986.333 794.167,978.667 775.5,971C 743.271,950.293 734.771,922.126 750,886.5C 768.178,860.551 792.678,851.384 823.5,859C 843.177,867.219 862.844,875.219 882.5,883C 910.221,818.385 937.554,753.552 964.5,688.5C 959.095,686.083 953.595,683.749 948,681.5C 919.579,671.412 901.079,651.912 892.5,623C 890.786,618.096 889.453,613.096 888.5,608C 888.023,578.486 895.023,551.153 909.5,526C 927.549,480.476 946.549,433.81 966.5,386C 966.355,385.228 966.022,384.561 965.5,384C 950.927,381.221 936.094,378.388 921,375.5C 919.372,376.097 917.705,375.763 916,374.5C 915,375.5 914,376.5 913,377.5C 912.333,376.167 911.667,376.167 911,377.5C 908.397,375.975 905.897,374.975 903.5,374.5C 913.368,351.275 923.035,327.275 932.5,302.5C 934.597,302.003 936.43,301.67 938,301.5C 939.825,302.103 941.659,302.77 943.5,303.5C 943.167,304.167 942.833,304.833 942.5,305.5C 945.663,306.895 948.83,307.228 952,306.5C 956.049,307.102 960.049,307.769 964,308.5C 1007.34,310.435 1050.51,307.102 1093.5,298.5C 1104.32,300.74 1114.98,302.407 1125.5,303.5C 1125.58,306.271 1125.08,308.937 1124,311.5C 1089.2,394.529 1053.87,480.196 1018,568.5C 1011.3,595.196 1021.47,608.863 1048.5,609.5C 1057.96,609.051 1066.96,606.885 1075.5,603C 1096.27,592.554 1114.44,578.721 1130,561.5C 1147.94,540.067 1164.1,517.401 1178.5,493.5C 1187.34,477.144 1196.18,460.811 1205,444.5C 1221.43,406.294 1238.43,368.294 1256,330.5C 1261.14,318.249 1265.97,305.916 1270.5,293.5 Z"/></g>
<g><path style="opacity:1" fill="#fffefe" d="M 538.5,328.5 C 606.217,330.209 661.051,357.209 703,409.5C 703.483,410.448 703.649,411.448 703.5,412.5C 704.5,412.5 705.5,412.5 706.5,412.5C 706.238,413.978 706.571,415.311 707.5,416.5C 708.814,417.313 709.981,418.313 711,419.5C 716.113,428.741 721.446,437.741 727,446.5C 727.684,447.784 727.517,448.951 726.5,450C 728.543,451.811 730.043,453.978 731,456.5C 736.529,472.985 741.362,489.652 745.5,506.5C 745.103,507.986 744.77,509.486 744.5,511C 745.73,514.419 746.73,517.919 747.5,521.5C 747.347,548.697 747.347,576.03 747.5,603.5C 608.833,603.5 470.167,603.5 331.5,603.5C 331.333,573.831 331.5,544.165 332,514.5C 332.915,513.672 333.581,512.672 334,511.5C 334.39,507.486 334.89,503.486 335.5,499.5C 335.43,498.228 335.097,497.062 334.5,496C 337.795,490.402 339.628,484.236 340,477.5C 351.991,439.864 372.824,407.364 402.5,380C 441.886,347.155 487.219,329.988 538.5,328.5 Z M 523.5,374.5 C 509.037,377.367 494.704,381.201 480.5,386C 461.225,393.632 443.891,404.298 428.5,418C 422.333,424.833 416.167,431.667 410,438.5C 385.358,474.601 374.192,514.601 376.5,558.5C 485.167,558.5 593.833,558.5 702.5,558.5C 703.287,524.132 696.454,491.465 682,460.5C 674.492,448.816 666.492,437.483 658,426.5C 621.051,389.45 576.218,372.117 523.5,374.5 Z"/></g>
</svg>
