<?xml version="1.0" encoding="UTF-8"?>
<svg xmlns="http://www.w3.org/2000/svg" xmlns:xlink="http://www.w3.org/1999/xlink" width="40px" height="40px" viewBox="0 0 40 40" version="1.1">
<g id="surface1">
<path style=" stroke:none;fill-rule:evenodd;fill:rgb(98.431373%,98.431373%,98.431373%);fill-opacity:1;" d="M 14.085938 1.09375 C 13.832031 1.109375 13.542969 1.136719 13.445312 1.15625 C 13.347656 1.171875 13.199219 1.1875 13.117188 1.1875 C 12.453125 1.1875 10.15625 1.964844 9.234375 2.5 C 9.148438 2.550781 8.992188 2.632812 8.890625 2.6875 C 7.746094 3.296875 5.988281 4.847656 5.28125 5.875 C 5.238281 5.933594 5.121094 6.082031 5.019531 6.203125 C 4.921875 6.324219 4.796875 6.5 4.746094 6.59375 C 4.695312 6.6875 4.578125 6.890625 4.480469 7.046875 C 3.988281 7.832031 3.28125 9.558594 3.078125 10.46875 C 3.050781 10.597656 3.003906 10.792969 2.980469 10.902344 C 2.953125 11.015625 2.925781 11.210938 2.914062 11.339844 C 2.90625 11.472656 2.878906 11.65625 2.851562 11.75 C 2.8125 11.886719 2.800781 12.179688 2.789062 13.207031 L 2.777344 14.492188 L 2.511719 14.621094 C 1.683594 15.035156 1.125 15.65625 0.753906 16.574219 L 0.640625 16.859375 L 0.640625 36.484375 L 0.777344 36.824219 C 1.136719 37.71875 1.820312 38.421875 2.679688 38.78125 C 3.066406 38.945312 2.828125 38.941406 10.328125 38.929688 L 17.359375 38.921875 L 17.53125 38.84375 C 17.625 38.800781 17.773438 38.707031 17.863281 38.636719 L 18.019531 38.507812 L 18.4375 38.679688 C 19.824219 39.246094 20.941406 38.828125 21.476562 37.539062 C 21.648438 37.132812 22.222656 35.746094 22.78125 34.390625 C 23.007812 33.839844 23.433594 32.8125 23.726562 32.109375 C 25.042969 28.929688 24.882812 29.277344 25.074219 29.179688 C 25.40625 29.011719 25.644531 28.664062 25.902344 27.960938 C 26.132812 27.335938 26.179688 27.03125 26.09375 26.628906 L 26.058594 26.476562 L 26.433594 25.574219 C 26.640625 25.078125 27.085938 24.003906 27.421875 23.1875 C 27.761719 22.371094 28.085938 21.589844 28.140625 21.453125 C 28.199219 21.316406 28.332031 20.992188 28.4375 20.734375 C 28.546875 20.476562 28.664062 20.1875 28.703125 20.09375 C 28.742188 20 29.011719 19.34375 29.304688 18.640625 C 29.597656 17.9375 30.042969 16.859375 30.296875 16.25 C 30.546875 15.640625 30.796875 15.039062 30.851562 14.910156 L 30.945312 14.683594 L 31.199219 14.5625 C 31.339844 14.496094 31.53125 14.394531 31.628906 14.339844 L 31.804688 14.238281 L 32.035156 14.414062 C 32.5 14.769531 32.996094 14.976562 33.671875 15.109375 C 33.914062 15.15625 34.355469 15.242188 34.65625 15.300781 C 35.308594 15.433594 35.539062 15.433594 35.824219 15.300781 C 36.285156 15.09375 36.320312 15.03125 37.023438 13.34375 C 37.726562 11.644531 37.75 11.570312 37.644531 11.164062 C 37.515625 10.664062 37.238281 10.398438 36.707031 10.261719 C 36.449219 10.199219 36.445312 10.261719 36.785156 9.445312 C 37.105469 8.679688 37.535156 7.644531 37.734375 7.15625 C 37.882812 6.789062 38.242188 5.933594 38.527344 5.25 C 39.316406 3.390625 39.398438 3.113281 39.300781 2.726562 C 39.148438 2.136719 38.820312 1.886719 37.984375 1.734375 C 37.847656 1.710938 37.417969 1.625 37.03125 1.542969 C 35.621094 1.253906 35.363281 1.210938 35.105469 1.226562 C 34.617188 1.257812 34.238281 1.546875 34.011719 2.0625 C 33.9375 2.226562 33.792969 2.554688 33.6875 2.796875 C 33.582031 3.039062 33.445312 3.347656 33.382812 3.484375 C 33.324219 3.621094 33.210938 3.871094 33.136719 4.042969 C 33.058594 4.210938 32.890625 4.605469 32.765625 4.917969 C 32.640625 5.230469 32.449219 5.6875 32.34375 5.9375 C 32.234375 6.1875 32.074219 6.574219 31.984375 6.796875 C 31.589844 7.773438 31.523438 7.933594 31.421875 8.171875 C 31.363281 8.308594 31.195312 8.710938 31.046875 9.0625 C 30.558594 10.222656 30.351562 10.421875 29.765625 10.292969 C 29.425781 10.214844 29.429688 10.230469 29.609375 9.796875 C 29.667969 9.660156 29.859375 9.203125 30.03125 8.78125 C 30.386719 7.917969 30.609375 7.382812 30.765625 7.015625 C 30.824219 6.878906 30.992188 6.476562 31.136719 6.125 C 31.28125 5.773438 31.527344 5.183594 31.679688 4.8125 C 32.351562 3.207031 32.382812 3.089844 32.265625 2.644531 C 32.097656 1.992188 31.851562 1.847656 30.46875 1.566406 C 30.289062 1.527344 30.007812 1.46875 29.84375 1.4375 C 27.640625 0.980469 27.394531 1.050781 26.894531 2.25 C 26.835938 2.398438 26.679688 2.777344 26.546875 3.09375 C 26.414062 3.410156 26.246094 3.820312 26.171875 4 C 25.964844 4.503906 25.824219 4.851562 25.621094 5.328125 C 25.515625 5.570312 25.390625 5.871094 25.335938 5.996094 L 25.238281 6.226562 L 25.15625 6.132812 C 25.113281 6.082031 24.972656 5.894531 24.84375 5.71875 C 24.714844 5.539062 24.523438 5.304688 24.421875 5.199219 C 23.742188 4.5 23.503906 4.265625 23.242188 4.039062 C 22.878906 3.722656 22.089844 3.128906 21.824219 2.972656 C 21.71875 2.910156 21.476562 2.769531 21.289062 2.65625 C 20.160156 1.984375 17.902344 1.191406 17.09375 1.1875 C 17.015625 1.1875 16.804688 1.164062 16.625 1.136719 C 16.226562 1.082031 14.75 1.054688 14.085938 1.09375 M 16.4375 2.328125 C 17.339844 2.429688 18.601562 2.730469 19.171875 2.984375 C 19.222656 3.007812 19.386719 3.078125 19.53125 3.140625 C 20.195312 3.425781 20.410156 3.539062 21.0625 3.945312 C 22.425781 4.796875 23.6875 6.058594 24.597656 7.480469 C 24.8125 7.816406 24.8125 7.84375 24.65625 8.1875 C 23.46875 10.828125 23.675781 13.042969 25.222656 14.195312 C 25.527344 14.417969 25.527344 14.398438 25.1875 15.203125 C 25.121094 15.359375 24.875 15.949219 24.640625 16.515625 C 24.148438 17.707031 23.78125 18.59375 23.03125 20.40625 C 22.734375 21.121094 22.351562 22.039062 22.183594 22.453125 C 22.011719 22.867188 21.832031 23.300781 21.78125 23.421875 C 21.730469 23.542969 21.609375 23.832031 21.515625 24.0625 C 21.335938 24.496094 21.269531 24.597656 21.113281 24.675781 C 20.714844 24.886719 20.105469 26.054688 20.09375 26.628906 C 20.089844 26.929688 20.074219 26.925781 18.921875 26.4375 C 18.484375 26.25 18.3125 26.210938 17.988281 26.21875 C 17.632812 26.226562 17.625 26.226562 17.625 26.179688 C 17.625 26.15625 17.679688 26.007812 17.746094 25.84375 C 18.0625 25.078125 18.066406 24.496094 17.753906 23.753906 C 16.664062 21.164062 13.0625 21.410156 12.3125 24.125 C 12.242188 24.367188 12.261719 25.351562 12.339844 25.5625 C 12.515625 26.050781 12.671875 26.316406 12.996094 26.664062 C 13.121094 26.800781 13.234375 26.941406 13.25 26.980469 C 13.277344 27.054688 13.242188 27.464844 13.203125 27.53125 C 13.1875 27.554688 13.167969 27.65625 13.15625 27.761719 C 13.074219 28.417969 12.9375 29.25 12.84375 29.671875 C 12.828125 29.742188 12.796875 29.9375 12.78125 30.109375 C 12.761719 30.28125 12.710938 30.597656 12.664062 30.8125 C 12.621094 31.027344 12.574219 31.292969 12.5625 31.40625 C 12.527344 31.691406 12.476562 31.988281 12.386719 32.394531 C 12.347656 32.585938 12.304688 32.863281 12.292969 33.007812 C 12.265625 33.375 12.214844 33.355469 13.273438 33.371094 C 14.25 33.382812 14.199219 33.363281 14.191406 33.671875 C 14.167969 34.394531 14.484375 34.769531 15.453125 35.171875 C 16.765625 35.714844 16.6875 35.664062 16.632812 35.929688 C 16.519531 36.488281 16.574219 36.925781 16.8125 37.367188 C 16.949219 37.617188 16.964844 37.703125 16.886719 37.730469 C 16.796875 37.765625 3.464844 37.75 3.3125 37.714844 C 2.804688 37.597656 2.15625 36.988281 1.914062 36.390625 L 1.8125 36.140625 L 1.8125 17.203125 L 1.921875 16.941406 C 2.230469 16.191406 2.96875 15.601562 3.710938 15.511719 C 3.980469 15.480469 3.960938 15.601562 3.976562 13.75 C 3.988281 12.316406 3.996094 12.089844 4.039062 11.953125 C 4.070312 11.867188 4.09375 11.71875 4.09375 11.621094 C 4.09375 11.527344 4.121094 11.335938 4.15625 11.203125 C 4.191406 11.070312 4.21875 10.929688 4.21875 10.894531 C 4.21875 10.734375 4.660156 9.394531 4.835938 9.019531 C 5.253906 8.125 5.660156 7.390625 5.953125 7.003906 C 6.019531 6.914062 6.148438 6.746094 6.234375 6.628906 C 6.558594 6.191406 7.394531 5.277344 7.625 5.109375 C 7.671875 5.074219 7.820312 4.953125 7.949219 4.839844 C 9.449219 3.535156 11.621094 2.589844 13.667969 2.339844 C 14.472656 2.242188 15.632812 2.238281 16.4375 2.328125 M 28.796875 2.46875 C 28.984375 2.503906 29.246094 2.550781 29.375 2.578125 C 30.320312 2.757812 30.980469 2.910156 31.035156 2.957031 C 31.117188 3.03125 31.140625 2.957031 30.574219 4.3125 C 30.390625 4.75 30.21875 5.171875 30.1875 5.25 C 30.15625 5.328125 30.023438 5.652344 29.890625 5.96875 C 29.757812 6.285156 29.621094 6.617188 29.585938 6.703125 C 29.554688 6.789062 29.417969 7.121094 29.285156 7.4375 C 29.148438 7.753906 28.957031 8.210938 28.859375 8.453125 C 28.761719 8.695312 28.617188 9.03125 28.546875 9.203125 C 28.175781 10.078125 28.164062 10.507812 28.492188 10.957031 C 28.902344 11.511719 30.105469 11.703125 30.855469 11.332031 C 31.410156 11.058594 31.683594 10.691406 32.125 9.625 C 32.339844 9.105469 32.585938 8.511719 32.890625 7.78125 C 32.964844 7.601562 33.125 7.207031 33.25 6.90625 C 33.375 6.605469 33.539062 6.210938 33.617188 6.03125 C 33.691406 5.851562 33.832031 5.519531 33.921875 5.296875 C 34.074219 4.921875 34.21875 4.585938 34.546875 3.84375 C 34.613281 3.699219 34.769531 3.347656 34.894531 3.0625 C 35.210938 2.339844 35.097656 2.375 36.265625 2.625 C 36.421875 2.65625 36.867188 2.75 37.257812 2.828125 C 37.644531 2.90625 37.988281 2.976562 38.011719 2.988281 C 38.109375 3.023438 38.09375 3.125 37.949219 3.476562 C 37.871094 3.667969 37.710938 4.058594 37.59375 4.34375 C 37.476562 4.628906 37.21875 5.246094 37.023438 5.71875 C 36.824219 6.191406 36.617188 6.691406 36.5625 6.828125 C 36.296875 7.472656 36.136719 7.859375 35.804688 8.65625 C 35.160156 10.203125 35.128906 10.304688 35.1875 10.617188 C 35.265625 11.042969 35.546875 11.277344 36.078125 11.359375 C 36.472656 11.421875 36.488281 11.457031 36.296875 11.914062 C 36.214844 12.109375 36.082031 12.433594 36 12.640625 C 35.589844 13.65625 35.386719 14.109375 35.316406 14.144531 C 35.25 14.179688 35.160156 14.167969 34.5625 14.050781 C 34.433594 14.023438 34.171875 13.972656 33.984375 13.9375 C 33.050781 13.753906 32.460938 13.355469 32.113281 12.664062 C 32.003906 12.449219 31.972656 12.453125 31.691406 12.746094 C 31.335938 13.109375 30.894531 13.402344 30.425781 13.578125 C 30.019531 13.730469 30.039062 13.707031 29.816406 14.25 C 29.515625 14.980469 29.074219 16.054688 28.898438 16.46875 C 28.792969 16.71875 28.679688 17 28.640625 17.09375 C 28.601562 17.1875 28.519531 17.386719 28.460938 17.53125 C 28.398438 17.675781 28.261719 18.007812 28.15625 18.265625 C 27.949219 18.769531 27.828125 19.058594 27.625 19.546875 C 27.554688 19.71875 27.433594 20.007812 27.359375 20.1875 C 27.070312 20.886719 26.894531 21.308594 26.796875 21.546875 C 26.742188 21.683594 26.570312 22.09375 26.421875 22.453125 C 26.269531 22.8125 26.117188 23.1875 26.078125 23.28125 C 26.039062 23.375 25.921875 23.65625 25.820312 23.90625 C 25.714844 24.15625 25.570312 24.515625 25.492188 24.703125 C 25.339844 25.074219 25.066406 25.726562 24.886719 26.15625 C 24.730469 26.519531 24.71875 26.628906 24.824219 26.75 C 24.980469 26.933594 24.972656 27.027344 24.753906 27.59375 C 24.59375 28.019531 24.484375 28.148438 24.253906 28.183594 C 24.027344 28.21875 24.054688 28.175781 23.5625 29.359375 C 22.914062 30.914062 22.476562 31.976562 22.335938 32.3125 C 22.269531 32.476562 22.1875 32.671875 22.15625 32.75 C 22.121094 32.828125 22.039062 33.03125 21.96875 33.203125 C 21.695312 33.867188 21.617188 34.054688 21.515625 34.296875 C 21.457031 34.433594 21.273438 34.878906 21.105469 35.28125 C 20.242188 37.386719 20.292969 37.277344 20.109375 37.457031 C 19.859375 37.703125 19.511719 37.785156 19.183594 37.671875 C 17.945312 37.238281 17.636719 36.984375 17.644531 36.40625 L 17.644531 36.109375 L 17.980469 35.285156 C 18.386719 34.277344 18.394531 34.1875 18.039062 34.175781 C 17.910156 34.171875 17.894531 34.199219 17.695312 34.644531 C 17.570312 34.921875 17.496094 34.921875 16.859375 34.65625 C 16.6875 34.582031 16.46875 34.492188 16.375 34.453125 C 15.007812 33.894531 15.0625 33.953125 15.3125 33.351562 C 15.628906 32.589844 15.589844 32.609375 16.226562 32.875 C 16.859375 33.136719 16.804688 33.152344 17.046875 32.582031 C 17.253906 32.082031 17.265625 32.101562 16.664062 31.855469 C 15.996094 31.578125 16.019531 31.636719 16.289062 30.996094 C 16.402344 30.730469 16.570312 30.320312 16.671875 30.078125 C 16.949219 29.402344 16.898438 29.433594 17.410156 29.640625 C 17.914062 29.84375 17.910156 29.84375 18.136719 29.289062 C 18.34375 28.789062 18.339844 28.773438 17.859375 28.578125 C 17.351562 28.371094 17.363281 28.402344 17.625 27.773438 C 17.90625 27.105469 17.894531 27.109375 18.757812 27.46875 C 19.089844 27.609375 19.464844 27.765625 19.59375 27.816406 C 20.351562 28.128906 20.367188 28.148438 20.238281 28.496094 C 20.074219 28.929688 20.117188 29.09375 20.390625 29.09375 C 20.527344 29.09375 20.558594 29.046875 20.765625 28.5625 C 20.863281 28.332031 21.007812 27.992188 21.082031 27.8125 C 21.355469 27.175781 21.367188 27.136719 21.300781 27.019531 C 21.109375 26.703125 21.113281 26.636719 21.332031 26.125 C 21.488281 25.746094 21.617188 25.578125 21.761719 25.546875 C 21.957031 25.507812 21.988281 25.5 22.023438 25.476562 C 22.0625 25.449219 22.238281 25.035156 23.132812 22.859375 C 23.210938 22.671875 23.355469 22.324219 23.453125 22.09375 C 23.550781 21.863281 23.714844 21.46875 23.816406 21.21875 C 23.917969 20.96875 24.042969 20.667969 24.09375 20.546875 C 24.144531 20.425781 24.242188 20.1875 24.3125 20.015625 C 24.382812 19.84375 24.488281 19.589844 24.546875 19.453125 C 24.605469 19.316406 24.796875 18.859375 24.96875 18.4375 C 25.140625 18.015625 25.324219 17.574219 25.375 17.453125 C 25.503906 17.144531 25.8125 16.402344 26.203125 15.453125 C 26.386719 15.007812 26.59375 14.511719 26.660156 14.351562 C 26.84375 13.917969 26.855469 13.945312 26.3125 13.679688 C 24.707031 12.894531 24.453125 11.257812 25.539062 8.671875 C 25.675781 8.34375 25.835938 7.964844 25.890625 7.828125 C 25.949219 7.691406 26.050781 7.445312 26.117188 7.28125 C 26.1875 7.117188 26.375 6.660156 26.539062 6.265625 C 26.8125 5.601562 27.421875 4.140625 27.78125 3.28125 C 27.863281 3.082031 27.976562 2.8125 28.03125 2.679688 C 28.171875 2.335938 28.144531 2.34375 28.796875 2.46875 M 14.296875 6.957031 C 13.417969 7.050781 11.945312 7.65625 11.261719 8.203125 C 11.144531 8.296875 10.976562 8.429688 10.890625 8.496094 C 10.734375 8.617188 10.3125 9.050781 10.074219 9.332031 C 9.433594 10.09375 8.839844 11.433594 8.730469 12.359375 C 8.71875 12.460938 8.691406 12.609375 8.667969 12.6875 C 8.59375 12.933594 8.605469 15.378906 8.683594 15.449219 C 8.777344 15.535156 21.496094 15.527344 21.574219 15.441406 C 21.625 15.386719 21.628906 15.277344 21.625 14.183594 C 21.621094 13 21.609375 12.820312 21.5 12.320312 C 21.480469 12.246094 21.46875 12.15625 21.46875 12.125 C 21.46875 11.933594 21.0625 10.757812 20.894531 10.453125 C 19.855469 8.597656 18.480469 7.554688 16.386719 7.042969 C 16.054688 6.960938 14.761719 6.910156 14.296875 6.957031 M 15.867188 8.183594 C 17.296875 8.433594 18.394531 9.082031 19.246094 10.1875 C 20.0625 11.242188 20.371094 12.164062 20.425781 13.695312 L 20.445312 14.3125 L 9.808594 14.3125 L 9.820312 13.664062 C 9.832031 13.03125 9.847656 12.894531 9.972656 12.28125 C 10.113281 11.605469 10.609375 10.574219 11.011719 10.121094 C 11.082031 10.042969 11.207031 9.898438 11.292969 9.800781 C 11.429688 9.640625 11.609375 9.476562 12.015625 9.15625 C 12.960938 8.402344 14.65625 7.972656 15.867188 8.183594 M 15.402344 23.203125 C 16.511719 23.441406 17.070312 24.613281 16.527344 25.574219 C 16.234375 26.09375 16.21875 26.550781 16.484375 26.972656 C 16.585938 27.128906 16.585938 27.132812 16.421875 27.53125 C 16.257812 27.925781 16.1875 28.179688 16.1875 28.359375 C 16.1875 28.46875 16.167969 28.511719 16.0625 28.621094 C 15.898438 28.792969 15.890625 28.808594 15.390625 30.015625 C 14.941406 31.097656 14.875 31.296875 14.875 31.53125 C 14.875 31.652344 14.859375 31.691406 14.777344 31.769531 C 14.722656 31.816406 14.640625 31.933594 14.585938 32.023438 L 14.492188 32.1875 L 14.109375 32.1875 C 13.660156 32.1875 13.671875 32.195312 13.734375 31.90625 C 13.761719 31.785156 13.78125 31.609375 13.78125 31.519531 C 13.78125 31.433594 13.8125 31.226562 13.847656 31.0625 C 13.9375 30.640625 13.960938 30.523438 14.003906 30.203125 C 14.023438 30.046875 14.074219 29.789062 14.113281 29.625 C 14.152344 29.464844 14.1875 29.285156 14.1875 29.234375 C 14.1875 29.179688 14.207031 28.996094 14.234375 28.824219 C 14.261719 28.65625 14.296875 28.414062 14.3125 28.289062 C 14.328125 28.164062 14.371094 27.945312 14.402344 27.804688 C 14.605469 26.945312 14.5 26.46875 13.976562 25.90625 C 13.851562 25.773438 13.695312 25.5625 13.625 25.441406 L 13.5 25.21875 L 13.5 24.375 L 13.628906 24.117188 C 13.863281 23.640625 14.269531 23.316406 14.796875 23.183594 C 15.027344 23.125 15.035156 23.125 15.402344 23.203125 "/>
<path style=" stroke:none;fill-rule:evenodd;fill:rgb(1.568627%,36.078431%,1.568627%);fill-opacity:1;" d="M 28.183594 2.40625 C 28.152344 2.421875 28.085938 2.546875 28.03125 2.679688 C 27.976562 2.8125 27.863281 3.082031 27.78125 3.28125 C 27.421875 4.140625 26.8125 5.601562 26.539062 6.265625 C 26.375 6.660156 26.1875 7.117188 26.117188 7.28125 C 26.050781 7.445312 25.949219 7.691406 25.890625 7.828125 C 25.835938 7.964844 25.675781 8.34375 25.539062 8.671875 C 24.453125 11.257812 24.707031 12.894531 26.3125 13.679688 C 26.855469 13.945312 26.84375 13.917969 26.660156 14.351562 C 26.59375 14.511719 26.386719 15.007812 26.203125 15.453125 C 25.8125 16.402344 25.503906 17.144531 25.375 17.453125 C 25.324219 17.574219 25.140625 18.015625 24.96875 18.4375 C 24.796875 18.859375 24.605469 19.316406 24.546875 19.453125 C 24.488281 19.589844 24.382812 19.84375 24.3125 20.015625 C 24.242188 20.1875 24.144531 20.425781 24.09375 20.546875 C 24.042969 20.667969 23.917969 20.96875 23.816406 21.21875 C 23.714844 21.46875 23.550781 21.863281 23.453125 22.09375 C 23.355469 22.324219 23.210938 22.671875 23.132812 22.859375 C 22.238281 25.035156 22.0625 25.449219 22.023438 25.476562 C 21.988281 25.5 21.957031 25.507812 21.761719 25.546875 C 21.617188 25.578125 21.488281 25.746094 21.332031 26.125 C 21.113281 26.636719 21.109375 26.703125 21.300781 27.019531 C 21.367188 27.136719 21.355469 27.175781 21.082031 27.8125 C 21.007812 27.992188 20.863281 28.332031 20.765625 28.5625 C 20.558594 29.046875 20.527344 29.09375 20.390625 29.09375 C 20.117188 29.09375 20.074219 28.929688 20.238281 28.496094 C 20.367188 28.148438 20.351562 28.128906 19.59375 27.816406 C 19.464844 27.765625 19.089844 27.609375 18.757812 27.46875 C 17.894531 27.109375 17.90625 27.105469 17.625 27.773438 C 17.363281 28.402344 17.351562 28.371094 17.859375 28.578125 C 18.339844 28.773438 18.34375 28.789062 18.136719 29.289062 C 17.910156 29.84375 17.914062 29.84375 17.410156 29.640625 C 16.898438 29.433594 16.949219 29.402344 16.671875 30.078125 C 16.570312 30.320312 16.402344 30.730469 16.289062 30.996094 C 16.019531 31.636719 15.996094 31.578125 16.664062 31.855469 C 17.265625 32.101562 17.253906 32.082031 17.046875 32.582031 C 16.804688 33.152344 16.859375 33.136719 16.226562 32.875 C 15.589844 32.609375 15.628906 32.589844 15.3125 33.351562 C 15.0625 33.953125 15.007812 33.894531 16.375 34.453125 C 16.46875 34.492188 16.6875 34.582031 16.859375 34.65625 C 17.496094 34.921875 17.570312 34.921875 17.695312 34.644531 C 17.894531 34.199219 17.910156 34.171875 18.039062 34.175781 C 18.394531 34.1875 18.386719 34.277344 17.980469 35.285156 L 17.644531 36.109375 L 17.644531 36.40625 C 17.636719 36.984375 17.945312 37.238281 19.183594 37.671875 C 19.511719 37.785156 19.859375 37.703125 20.109375 37.457031 C 20.292969 37.277344 20.242188 37.386719 21.105469 35.28125 C 21.273438 34.878906 21.457031 34.433594 21.515625 34.296875 C 21.617188 34.054688 21.695312 33.867188 21.96875 33.203125 C 22.039062 33.03125 22.121094 32.828125 22.15625 32.75 C 22.1875 32.671875 22.269531 32.476562 22.335938 32.3125 C 22.40625 32.148438 22.609375 31.65625 22.789062 31.21875 C 24.179688 27.863281 24.007812 28.222656 24.253906 28.183594 C 24.484375 28.148438 24.59375 28.019531 24.753906 27.59375 C 24.972656 27.027344 24.980469 26.933594 24.824219 26.75 C 24.71875 26.628906 24.730469 26.519531 24.886719 26.15625 C 25.066406 25.726562 25.339844 25.074219 25.492188 24.703125 C 25.570312 24.515625 25.714844 24.15625 25.820312 23.90625 C 25.921875 23.65625 26.039062 23.375 26.078125 23.28125 C 26.117188 23.1875 26.269531 22.8125 26.421875 22.453125 C 26.570312 22.09375 26.742188 21.683594 26.796875 21.546875 C 26.894531 21.308594 27.070312 20.886719 27.359375 20.1875 C 27.433594 20.007812 27.554688 19.71875 27.625 19.546875 C 27.828125 19.058594 27.949219 18.769531 28.15625 18.265625 C 28.261719 18.007812 28.398438 17.675781 28.460938 17.53125 C 28.519531 17.386719 28.601562 17.1875 28.640625 17.09375 C 28.679688 17 28.792969 16.71875 28.898438 16.46875 C 29.074219 16.054688 29.515625 14.980469 29.816406 14.25 C 30.039062 13.707031 30.019531 13.730469 30.425781 13.578125 C 30.894531 13.402344 31.335938 13.109375 31.691406 12.746094 C 31.972656 12.453125 32.003906 12.449219 32.113281 12.664062 C 32.460938 13.355469 33.050781 13.753906 33.984375 13.9375 C 34.171875 13.972656 34.433594 14.023438 34.5625 14.050781 C 35.160156 14.167969 35.25 14.179688 35.316406 14.144531 C 35.386719 14.109375 35.589844 13.65625 36 12.640625 C 36.082031 12.433594 36.214844 12.109375 36.296875 11.914062 C 36.488281 11.457031 36.472656 11.421875 36.078125 11.359375 C 35.546875 11.277344 35.265625 11.042969 35.1875 10.617188 C 35.128906 10.304688 35.160156 10.203125 35.804688 8.65625 C 36.136719 7.859375 36.296875 7.472656 36.5625 6.828125 C 36.617188 6.691406 36.824219 6.191406 37.023438 5.71875 C 37.21875 5.246094 37.476562 4.628906 37.59375 4.34375 C 37.710938 4.058594 37.871094 3.667969 37.949219 3.476562 C 38.09375 3.125 38.109375 3.023438 38.011719 2.988281 C 37.988281 2.976562 37.644531 2.90625 37.257812 2.828125 C 36.867188 2.75 36.421875 2.65625 36.265625 2.625 C 35.097656 2.375 35.210938 2.339844 34.894531 3.0625 C 34.769531 3.347656 34.613281 3.699219 34.546875 3.84375 C 34.21875 4.585938 34.074219 4.921875 33.921875 5.296875 C 33.832031 5.519531 33.691406 5.851562 33.617188 6.03125 C 33.539062 6.210938 33.375 6.605469 33.25 6.90625 C 33.125 7.207031 32.964844 7.601562 32.890625 7.78125 C 32.585938 8.511719 32.339844 9.105469 32.125 9.625 C 31.683594 10.691406 31.410156 11.058594 30.855469 11.332031 C 30.105469 11.703125 28.902344 11.511719 28.492188 10.957031 C 28.164062 10.507812 28.175781 10.078125 28.546875 9.203125 C 28.617188 9.03125 28.761719 8.695312 28.859375 8.453125 C 28.957031 8.210938 29.148438 7.753906 29.285156 7.4375 C 29.417969 7.121094 29.554688 6.789062 29.585938 6.703125 C 29.621094 6.617188 29.757812 6.285156 29.890625 5.96875 C 30.023438 5.652344 30.15625 5.328125 30.1875 5.25 C 30.21875 5.171875 30.390625 4.75 30.574219 4.3125 C 31.140625 2.957031 31.117188 3.03125 31.035156 2.957031 C 30.980469 2.910156 30.320312 2.757812 29.375 2.578125 C 28.242188 2.363281 28.253906 2.363281 28.183594 2.40625 "/>
<path style=" stroke:none;fill-rule:evenodd;fill:rgb(98.823529%,20.392157%,20.392157%);fill-opacity:1;" d="M 14.386719 2.277344 C 12.285156 2.402344 10.445312 3.050781 8.683594 4.285156 C 8.414062 4.476562 8.082031 4.726562 7.949219 4.839844 C 7.820312 4.953125 7.671875 5.074219 7.625 5.109375 C 7.394531 5.277344 6.558594 6.191406 6.234375 6.628906 C 6.148438 6.746094 6.019531 6.914062 5.953125 7.003906 C 5.660156 7.390625 5.253906 8.125 4.835938 9.019531 C 4.660156 9.394531 4.21875 10.734375 4.21875 10.894531 C 4.21875 10.929688 4.191406 11.070312 4.15625 11.203125 C 4.121094 11.335938 4.09375 11.527344 4.09375 11.621094 C 4.09375 11.71875 4.070312 11.867188 4.039062 11.953125 C 3.996094 12.089844 3.988281 12.316406 3.976562 13.75 C 3.960938 15.601562 3.980469 15.480469 3.710938 15.511719 C 2.96875 15.601562 2.230469 16.191406 1.921875 16.941406 L 1.8125 17.203125 L 1.8125 36.140625 L 1.914062 36.390625 C 2.15625 36.988281 2.804688 37.597656 3.3125 37.714844 C 3.464844 37.75 16.796875 37.765625 16.886719 37.730469 C 16.964844 37.703125 16.949219 37.617188 16.8125 37.367188 C 16.574219 36.925781 16.519531 36.488281 16.632812 35.929688 C 16.6875 35.664062 16.765625 35.714844 15.453125 35.171875 C 14.484375 34.769531 14.167969 34.394531 14.191406 33.671875 C 14.199219 33.363281 14.25 33.382812 13.273438 33.371094 C 12.214844 33.355469 12.265625 33.375 12.292969 33.007812 C 12.304688 32.863281 12.347656 32.585938 12.386719 32.394531 C 12.476562 31.988281 12.527344 31.691406 12.5625 31.40625 C 12.574219 31.292969 12.621094 31.027344 12.664062 30.8125 C 12.710938 30.597656 12.761719 30.28125 12.78125 30.109375 C 12.796875 29.9375 12.828125 29.742188 12.84375 29.671875 C 12.9375 29.25 13.074219 28.417969 13.15625 27.761719 C 13.167969 27.65625 13.1875 27.554688 13.203125 27.53125 C 13.242188 27.464844 13.277344 27.054688 13.25 26.980469 C 13.234375 26.941406 13.121094 26.800781 12.996094 26.664062 C 12.671875 26.316406 12.515625 26.050781 12.339844 25.5625 C 12.261719 25.351562 12.242188 24.367188 12.3125 24.125 C 13.0625 21.410156 16.664062 21.164062 17.753906 23.753906 C 17.945312 24.207031 17.96875 24.324219 17.96875 24.789062 C 17.96875 25.265625 17.949219 25.351562 17.746094 25.84375 C 17.679688 26.007812 17.625 26.15625 17.625 26.179688 C 17.625 26.226562 17.632812 26.226562 17.988281 26.21875 C 18.3125 26.210938 18.484375 26.25 18.921875 26.4375 C 20.074219 26.925781 20.089844 26.929688 20.09375 26.628906 C 20.105469 26.054688 20.714844 24.886719 21.113281 24.675781 C 21.269531 24.597656 21.335938 24.496094 21.515625 24.0625 C 21.609375 23.832031 21.730469 23.542969 21.78125 23.421875 C 21.832031 23.300781 22.011719 22.867188 22.183594 22.453125 C 22.351562 22.039062 22.734375 21.121094 23.03125 20.40625 C 23.78125 18.59375 24.148438 17.707031 24.640625 16.515625 C 24.875 15.949219 25.121094 15.359375 25.1875 15.203125 C 25.527344 14.398438 25.527344 14.417969 25.222656 14.195312 C 23.675781 13.042969 23.46875 10.828125 24.65625 8.1875 C 24.8125 7.84375 24.8125 7.816406 24.597656 7.480469 C 23.6875 6.058594 22.425781 4.796875 21.0625 3.945312 C 20.410156 3.539062 20.195312 3.425781 19.53125 3.140625 C 19.386719 3.078125 19.222656 3.007812 19.171875 2.984375 C 18.042969 2.484375 16.011719 2.183594 14.386719 2.277344 M 16.386719 7.042969 C 18.480469 7.554688 19.855469 8.597656 20.894531 10.453125 C 21.0625 10.757812 21.46875 11.933594 21.46875 12.125 C 21.46875 12.15625 21.480469 12.246094 21.5 12.320312 C 21.609375 12.820312 21.621094 13 21.625 14.183594 C 21.628906 15.277344 21.625 15.386719 21.574219 15.441406 C 21.496094 15.527344 8.777344 15.535156 8.683594 15.449219 C 8.605469 15.378906 8.59375 12.933594 8.667969 12.6875 C 8.691406 12.609375 8.71875 12.460938 8.730469 12.359375 C 8.839844 11.433594 9.433594 10.09375 10.074219 9.332031 C 10.3125 9.050781 10.734375 8.617188 10.890625 8.496094 C 10.976562 8.429688 11.144531 8.296875 11.261719 8.203125 C 11.859375 7.722656 12.78125 7.3125 13.796875 7.0625 C 14.449219 6.902344 15.78125 6.894531 16.386719 7.042969 "/>
</g>
</svg>
