<?xml version="1.0" encoding="UTF-8"?>
<!DOCTYPE svg PUBLIC "-//W3C//DTD SVG 1.1//EN" "http://www.w3.org/Graphics/SVG/1.1/DTD/svg11.dtd">
<svg xmlns="http://www.w3.org/2000/svg" version="1.1" width="48px" height="48px" style="shape-rendering:geometricPrecision; text-rendering:geometricPrecision; image-rendering:optimizeQuality; fill-rule:evenodd; clip-rule:evenodd" xmlns:xlink="http://www.w3.org/1999/xlink">
<g><path style="opacity:0.663" fill="#f4edeb" d="M 12.5,3.5 C 17.7019,2.75618 22.3686,3.92284 26.5,7C 32.9613,8.0062 39.2947,8.17287 45.5,7.5C 45.6611,10.5279 44.9944,13.3612 43.5,16C 45.0288,17.582 45.5288,19.4153 45,21.5C 42.0035,22.9106 38.8369,23.9106 35.5,24.5C 33.493,30.6776 30.8264,36.5109 27.5,42C 19.5788,43.5675 11.5788,43.9009 3.5,43C 2.20411,39.0913 1.53744,34.9246 1.5,30.5C 0.622137,22.5944 2.12214,15.261 6,8.5C 7.96514,6.44965 10.1318,4.78299 12.5,3.5 Z M 16.5,11.5 C 18.7225,12.1145 20.3892,13.4478 21.5,15.5C 18.5,16.8333 15.5,16.8333 12.5,15.5C 13.5487,13.7844 14.882,12.4511 16.5,11.5 Z M 15.5,28.5 C 16.0768,27.2267 16.7435,27.2267 17.5,28.5C 17.0302,29.463 16.3635,29.463 15.5,28.5 Z"/></g>
<g><path style="opacity:1" fill="#ff3634" d="M 12.5,5.5 C 19.6762,4.4253 24.6762,7.09196 27.5,13.5C 26.3859,17.4908 26.3859,21.4908 27.5,25.5C 25.8008,25.3398 24.1341,25.5065 22.5,26C 22.0116,28.1761 21.0116,30.0094 19.5,31.5C 19.3459,30.0909 19.1792,28.4242 19,26.5C 17.6124,25.4464 16.1124,25.2797 14.5,26C 14.7911,29.7546 14.4578,33.588 13.5,37.5C 17.3246,36.7887 20.3246,37.9554 22.5,41C 16.5,41.6667 10.5,41.6667 4.5,41C 3.0191,31.7776 3.5191,22.6109 6,13.5C 7.30459,10.0386 9.47125,7.37197 12.5,5.5 Z M 16.5,11.5 C 14.882,12.4511 13.5487,13.7844 12.5,15.5C 15.5,16.8333 18.5,16.8333 21.5,15.5C 20.3892,13.4478 18.7225,12.1145 16.5,11.5 Z M 15.5,28.5 C 16.3635,29.463 17.0302,29.463 17.5,28.5C 16.7435,27.2267 16.0768,27.2267 15.5,28.5 Z"/></g>
<g><path style="opacity:1" fill="#11610c" d="M 29.5,9.5 C 31.1667,9.5 32.8333,9.5 34.5,9.5C 33.5,12.8333 32.5,16.1667 31.5,19.5C 32.552,19.6495 33.552,19.4828 34.5,19C 36.9066,15.6466 39.4066,12.4799 42,9.5C 42.5,9.66667 43,9.83333 43.5,10C 42.3677,12.4336 41.3677,14.9336 40.5,17.5C 43.1265,19.344 42.9599,20.6773 40,21.5C 38.1178,20.394 36.2844,20.394 34.5,21.5C 31.724,27.3853 29.224,33.3853 27,39.5C 25.9887,40.3366 24.8221,40.67 23.5,40.5C 23.6495,39.448 23.4828,38.448 23,37.5C 21.5134,36.8448 20.3467,35.8448 19.5,34.5C 21.7138,33.9594 23.8805,33.6261 26,33.5C 26.1667,33 26.3333,32.5 26.5,32C 25.4911,30.8319 24.4911,29.6652 23.5,28.5C 29.5405,27.0888 31.2072,23.7555 28.5,18.5C 28.9672,16.4317 29.6339,14.4317 30.5,12.5C 28.565,11.787 28.2317,10.787 29.5,9.5 Z"/></g>
<g><path style="opacity:0.665" fill="#fff2f2" d="M 23.5,18.5 C 19.1667,18.5 14.8333,18.5 10.5,18.5C 10.5,17.1667 10.5,15.8333 10.5,14.5C 13.983,8.27114 18.1497,7.9378 23,13.5C 23.4935,15.1341 23.6602,16.8008 23.5,18.5 Z M 16.5,11.5 C 14.882,12.4511 13.5487,13.7844 12.5,15.5C 15.5,16.8333 18.5,16.8333 21.5,15.5C 20.3892,13.4478 18.7225,12.1145 16.5,11.5 Z"/></g>
<g><path style="opacity:1" fill="#ffaaa9" d="M 10.5,14.5 C 10.5,15.8333 10.5,17.1667 10.5,18.5C 14.8333,18.5 19.1667,18.5 23.5,18.5C 19.03,19.4861 14.3633,19.8195 9.5,19.5C 9.21552,17.5853 9.54885,15.9187 10.5,14.5 Z"/></g>
</svg>
